<?xml version="1.0" standalone="no"?>
<!DOCTYPE svg PUBLIC "-//W3C//DTD SVG 20010904//EN"
 "http://www.w3.org/TR/2001/REC-SVG-20010904/DTD/svg10.dtd">
<svg version="1.0" xmlns="http://www.w3.org/2000/svg"
 width="512.000000pt" height="512.000000pt" viewBox="0 0 512.000000 512.000000"
 preserveAspectRatio="xMidYMid meet">
<metadata>
Created by potrace 1.11, written by Peter Selinger 2001-2013
</metadata>
<g transform="translate(0.000000,512.000000) scale(0.100000,-0.100000)"
fill="#000000" stroke="none">
<path d="M2229 4155 c-6 -5 -132 -15 -199 -16 -25 0 -31 -2 -20 -9 23 -14 6
-22 -23 -11 -18 7 -28 7 -33 0 -4 -6 -11 -6 -20 2 -8 6 -21 8 -31 4 -10 -5
-38 -9 -63 -10 -90 -3 -101 -5 -95 -15 7 -12 -7 -13 -21 -2 -5 5 -38 4 -74 -2
-71 -12 -81 -25 -46 -63 11 -13 16 -23 12 -23 -4 0 -2 -9 4 -21 7 -11 9 -23 6
-26 -3 -3 -13 11 -22 31 -10 20 -21 36 -26 36 -4 0 -8 11 -8 25 0 14 -1 25 -2
25 -2 0 -38 -7 -81 -15 -44 -8 -83 -13 -87 -10 -5 3 -18 -5 -29 -17 -12 -12
-21 -16 -21 -10 0 10 -5 10 -20 2 -11 -6 -20 -8 -20 -4 0 3 -16 -4 -36 -16
-20 -11 -43 -19 -50 -16 -8 3 -14 0 -14 -7 0 -7 -3 -8 -8 -2 -7 11 -28 12 -52
2 -8 -3 -33 -10 -55 -15 -93 -24 -155 -43 -191 -59 -38 -16 -45 -18 -73 -21
-7 -1 -11 -8 -8 -17 8 -20 -8 -28 -22 -11 -10 12 -20 11 -67 -8 -34 -13 -54
-26 -53 -36 3 -20 -11 -50 -22 -50 -5 0 -8 5 -6 11 6 28 -57 17 -179 -32 -71
-29 -131 -54 -133 -56 -3 -2 1 -9 7 -15 10 -10 17 -10 32 0 17 10 20 10 20 -7
0 -10 -7 -22 -16 -25 -8 -3 -12 -10 -9 -16 3 -5 2 -10 -4 -10 -6 0 -15 9 -22
21 -7 14 -17 19 -30 16 -10 -3 -19 -1 -19 4 0 11 -27 1 -71 -28 l-37 -24 19
-60 c11 -34 17 -65 13 -70 -3 -5 0 -9 7 -9 6 0 9 -8 6 -20 -3 -11 -1 -18 3
-15 14 9 49 -112 36 -125 -8 -8 -6 -9 9 -4 17 7 18 6 7 -8 -10 -13 -10 -18 -1
-24 8 -5 10 -3 4 7 -7 12 -5 12 6 1 12 -11 12 -14 -1 -22 -13 -8 -12 -10 3
-10 10 0 16 -4 12 -9 -3 -5 0 -13 6 -16 5 -4 8 -13 5 -21 -3 -8 -1 -14 3 -14
5 0 8 -11 7 -25 -2 -13 1 -22 5 -19 5 3 10 0 10 -5 1 -6 3 -14 4 -18 2 -5 6
-18 10 -30 4 -13 11 -23 15 -23 14 0 20 -31 10 -50 -8 -16 -5 -22 20 -37 35
-20 37 -28 12 -42 -9 -6 -12 -11 -6 -11 7 0 15 -11 18 -24 3 -13 9 -32 13 -42
5 -13 3 -15 -7 -9 -9 5 -11 4 -6 -4 4 -6 12 -9 17 -6 5 4 9 1 9 -5 0 -6 11
-14 23 -19 13 -5 24 -15 24 -23 0 -7 10 -33 21 -57 12 -25 22 -59 22 -77 0
-22 5 -33 18 -36 18 -5 27 -38 10 -38 -4 0 -8 -5 -8 -11 0 -8 5 -7 15 1 13 10
19 10 35 -5 19 -17 19 -19 2 -32 -16 -14 -16 -14 1 -9 9 3 17 3 17 -1 0 -3 -8
-12 -17 -19 -16 -12 -15 -12 7 -8 15 3 20 2 14 -3 -19 -14 2 -54 23 -46 17 6
17 6 0 -12 -16 -15 -20 -16 -28 -4 -6 9 -9 10 -9 2 0 -7 6 -16 13 -20 17 -10
51 -101 51 -134 0 -16 5 -25 11 -22 13 4 41 -24 32 -33 -3 -3 -1 -18 5 -33 5
-14 12 -37 14 -50 5 -22 3 -23 -13 -10 -14 10 -13 8 3 -11 25 -31 44 -74 44
-101 0 -11 5 -17 10 -14 14 8 13 -18 -1 -32 -8 -8 -6 -15 9 -24 16 -10 18 -18
11 -35 -4 -13 -5 -25 -1 -28 12 -7 13 -66 2 -66 -7 0 -6 -6 2 -14 9 -10 17
-11 25 -4 18 15 16 3 -2 -16 -17 -17 -10 -46 11 -46 8 0 14 -7 14 -16 0 -8 -4
-12 -10 -9 -14 9 -13 -5 5 -55 8 -23 13 -46 10 -50 -3 -5 -1 -10 4 -12 10 -3
73 -173 74 -200 1 -10 5 -18 9 -18 4 0 8 -4 8 -9 0 -5 7 -25 15 -45 8 -20 15
-38 16 -41 0 -2 11 -34 24 -69 13 -35 21 -66 18 -70 -4 -3 -1 -6 7 -6 10 0 10
-4 -1 -17 -10 -11 -10 -14 -1 -9 6 4 13 2 13 -3 1 -6 3 -20 4 -31 1 -11 3 -24
4 -30 0 -5 8 -10 16 -10 8 0 15 -9 15 -20 0 -11 5 -20 11 -20 5 0 8 4 4 9 -3
5 0 13 7 17 7 4 10 4 6 -1 -4 -4 -2 -15 5 -23 6 -9 8 -13 2 -10 -5 3 -19 -3
-29 -13 -11 -11 -14 -19 -8 -19 7 0 12 -6 12 -14 0 -29 54 -30 109 -3 18 9 38
14 44 10 6 -4 7 -1 2 7 -6 10 -4 12 8 7 11 -4 17 -1 17 9 0 8 4 13 9 9 5 -3
13 0 16 6 4 5 13 8 19 6 7 -3 19 -1 27 5 11 8 10 9 -4 4 -15 -5 -17 -2 -12 15
5 16 3 20 -6 16 -8 -2 -13 -10 -11 -17 1 -6 -3 -10 -10 -7 -8 2 -13 20 -12 46
0 22 -3 41 -8 41 -4 0 -8 7 -8 15 0 8 6 12 15 9 8 -3 14 -9 13 -12 0 -4 1 -9
2 -12 7 -19 7 -39 -1 -34 -5 3 -9 -2 -9 -10 0 -20 5 -20 24 0 13 13 16 13 16
1 0 -8 9 -22 19 -31 15 -14 24 -15 39 -7 11 6 22 7 26 4 3 -3 6 0 6 7 0 7 3
10 7 7 3 -4 11 -3 17 2 6 5 44 19 84 31 62 18 76 19 90 8 15 -12 16 -11 3 5
-12 15 -11 17 10 19 13 0 30 2 38 2 8 1 17 10 21 20 4 12 9 15 13 9 7 -12 57
-5 57 8 0 4 11 6 25 3 24 -4 33 5 18 20 -13 13 -13 48 1 62 20 19 26 18 26 -6
0 -11 10 -30 23 -42 12 -13 21 -27 19 -33 -1 -5 4 -2 12 9 8 10 19 15 25 12 5
-4 13 -1 17 5 4 7 3 9 -3 6 -6 -4 -14 0 -17 8 -5 13 -2 14 23 1 19 -11 38 -12
64 -6 26 5 37 4 37 -4 0 -7 4 -6 9 3 6 8 16 11 31 6 16 -5 20 -4 15 5 -6 9 -2
9 15 0 12 -7 20 -8 17 -3 -2 4 6 19 19 33 13 14 24 19 24 12 0 -7 4 -11 8 -8
5 3 7 23 5 46 -3 40 -2 40 25 34 15 -4 24 -3 20 1 -4 4 -3 16 2 26 11 20 -2
35 -21 23 -8 -4 -7 -9 2 -15 9 -6 10 -9 2 -9 -6 0 -18 -3 -26 -6 -19 -7 -32
27 -15 38 10 5 8 8 -5 8 -10 0 -15 5 -12 10 4 6 11 8 16 5 5 -4 9 -2 9 3 0 6
-7 13 -16 16 -8 3 -12 10 -9 16 3 5 2 10 -3 10 -6 0 -19 16 -31 35 -11 19 -16
35 -10 35 6 0 7 5 3 12 -5 8 -2 9 9 5 9 -3 16 -3 16 1 -4 23 3 34 17 28 8 -3
12 -2 9 4 -3 6 -1 10 5 10 6 0 9 4 6 9 -4 5 -1 11 4 13 6 2 12 10 14 18 8 42
19 70 27 70 6 0 5 8 -1 19 -13 26 -13 34 2 25 7 -4 8 -3 4 5 -10 15 -29 3 -22
-14 2 -7 -4 -15 -16 -19 -36 -9 -41 5 -9 25 18 11 29 26 28 38 -1 20 -9 19
-38 -6 -14 -11 -18 -11 -29 2 -8 10 -9 15 -1 15 6 0 11 -6 11 -12 1 -14 30 20
30 34 0 5 -11 6 -24 2 -23 -5 -45 11 -31 24 3 3 10 0 14 -7 12 -19 31 -5 26
21 -6 27 -6 27 -31 18 -14 -6 -30 -31 -48 -80 -14 -40 -33 -81 -41 -92 -16
-24 -71 -56 -137 -82 -27 -10 -48 -23 -48 -28 0 -6 -3 -9 -6 -5 -4 3 -19 0
-35 -9 -16 -8 -31 -14 -34 -14 -3 0 -6 0 -7 -1 -2 0 -12 -2 -23 -4 -11 -2 -25
-11 -31 -19 -6 -9 -13 -13 -16 -10 -3 3 -37 -4 -75 -16 -86 -26 -160 -32 -160
-13 0 7 7 13 16 13 12 0 11 4 -6 18 -23 18 -49 72 -34 72 5 0 12 -11 15 -24 3
-13 14 -27 23 -30 14 -6 15 -4 6 5 -12 12 -6 42 7 34 5 -3 12 0 16 6 4 8 3 9
-4 5 -8 -5 -12 4 -12 29 0 25 4 34 12 29 7 -5 8 -3 2 7 -10 16 -6 59 7 75 5 6
6 14 3 17 -3 3 -2 12 2 19 5 7 9 20 9 28 0 8 4 21 9 29 6 10 5 12 -2 7 -7 -4
-10 -2 -7 6 4 12 10 45 19 103 2 11 5 20 6 20 1 0 4 9 5 20 2 11 6 32 10 47 5
21 2 29 -15 38 -12 6 -19 14 -17 17 3 2 14 0 25 -6 16 -8 21 -7 26 5 3 8 2 13
-3 9 -10 -5 -9 13 0 30 4 6 5 21 4 35 -1 14 5 33 13 43 15 16 14 17 -2 11 -17
-6 -17 -5 -6 17 14 26 17 41 26 137 3 40 2 62 -5 62 -6 0 -11 7 -11 15 0 8 -5
15 -11 15 -5 0 -7 6 -3 13 6 9 4 9 -7 0 -18 -18 -28 -16 -25 5 2 9 8 17 14 17
6 0 13 3 16 8 3 4 3 5 -1 2 -3 -3 -12 0 -20 7 -11 9 -13 8 -11 -3 2 -9 -7 -15
-24 -17 -16 -2 -28 1 -28 6 0 6 -7 13 -16 16 -14 5 -15 4 -4 -9 7 -9 10 -19 6
-23 -4 -4 -15 2 -23 13 -14 18 -15 18 -9 1 4 -13 2 -17 -8 -13 -8 3 -16 2 -18
-3 -2 -5 -12 -11 -23 -13 -11 -1 -26 -7 -34 -11 -10 -7 -12 -5 -6 5 5 8 -2 5
-15 -6 -13 -11 -20 -14 -15 -6 4 7 -6 4 -23 -9 -22 -16 -29 -29 -26 -45 3 -17
-2 -24 -19 -29 -15 -4 -18 -8 -10 -14 14 -9 6 -52 -9 -52 -5 0 -3 -6 4 -14 7
-8 16 -12 20 -10 3 2 4 -5 1 -17 -4 -16 -8 -17 -14 -7 -7 10 -9 10 -9 -2 -1
-12 -3 -11 -14 3 -8 10 -17 18 -20 18 -3 -1 -10 -1 -14 -1 -4 0 -8 26 -7 58 0
31 -2 73 -6 94 -5 31 -3 38 18 49 33 18 28 32 -9 24 -26 -6 -30 -5 -25 10 4 9
7 22 7 28 0 7 4 6 10 -3 14 -23 19 -8 7 22 l-12 28 -29 -23 c-16 -12 -44 -36
-61 -52 -36 -34 -34 -15 -21 -208 l4 -58 -53 -25 c-30 -13 -58 -24 -64 -24 -5
0 -13 -5 -16 -10 -4 -6 -3 -10 2 -9 23 4 36 -2 27 -11 -6 -6 -21 -6 -42 -1
-19 6 -32 6 -32 0 0 -5 -12 -12 -27 -15 -41 -10 -42 -11 -30 -44 10 -25 9 -33
-3 -41 -13 -9 -13 -10 0 -8 29 3 41 -1 35 -11 -4 -6 1 -22 10 -36 9 -14 14
-32 11 -40 -3 -9 -1 -12 4 -9 6 3 10 0 10 -7 0 -7 10 -19 23 -27 20 -13 21
-13 8 2 -8 11 -9 17 -3 17 6 0 9 6 6 14 -3 8 -1 17 5 21 19 11 12 23 -11 17
-11 -3 -19 -1 -16 4 6 9 -16 35 -29 34 -5 0 -8 6 -9 13 0 17 16 38 26 32 11
-7 21 22 14 40 -7 18 7 20 23 4 9 -9 18 -8 35 3 13 8 33 14 45 13 14 -1 23 4
23 13 0 9 7 13 20 9 11 -3 18 -2 15 2 -2 5 6 13 20 19 18 8 25 8 29 -1 2 -7 5
-3 5 7 1 11 4 16 8 13 3 -4 13 -1 21 6 13 10 14 8 8 -13 -7 -25 -7 -25 9 2 15
27 45 42 98 47 4 1 7 10 7 21 0 25 26 26 53 2 15 -12 18 -13 12 -2 -8 13 -7
13 8 1 9 -7 17 -9 17 -4 0 5 10 9 23 8 12 -1 30 2 40 7 11 6 17 5 17 -2 0 -6
6 -8 13 -5 6 4 3 -1 -8 -10 -11 -9 -19 -19 -17 -23 1 -4 -3 -7 -8 -7 -6 0 -14
-6 -19 -13 -7 -12 -25 -18 -54 -21 -5 -1 -5 -6 -1 -12 4 -8 9 -7 15 2 7 11 9
11 9 -2 0 -8 -6 -21 -12 -28 -11 -11 -10 -12 1 -6 9 5 12 4 7 -3 -12 -20 -39
-14 -34 6 4 16 1 18 -21 15 -51 -8 -66 -10 -66 -12 0 -2 -7 -4 -15 -6 -8 -1
-33 -11 -55 -20 -22 -10 -46 -17 -52 -16 -7 1 -13 -3 -13 -9 0 -5 -11 -10 -25
-10 -14 0 -25 -4 -25 -10 0 -5 -7 -10 -16 -10 -11 0 -14 -6 -9 -22 7 -23 7
-23 -10 1 -16 21 -19 22 -27 7 -5 -9 -13 -14 -17 -12 -4 3 -8 -1 -8 -9 0 -8 4
-12 9 -9 4 3 8 -2 8 -10 0 -9 7 -16 15 -16 9 0 18 -6 21 -14 11 -29 31 -25 29
5 -2 28 5 36 18 22 4 -3 2 -12 -4 -19 -9 -11 -5 -11 20 -4 17 4 36 12 42 16 8
5 10 2 5 -7 -4 -8 -1 -6 7 3 8 10 17 15 20 11 4 -3 7 -1 7 7 0 10 3 10 14 1
11 -9 16 -9 22 0 5 8 3 10 -7 4 -8 -5 -10 -4 -6 0 7 9 23 13 59 17 9 1 14 7
10 13 -3 5 -5 21 -3 34 2 18 -1 22 -13 18 -10 -4 -16 -1 -16 9 0 11 4 12 18 5
13 -7 22 -7 30 1 14 14 32 1 32 -24 0 -16 4 -19 23 -13 12 3 28 7 35 7 6 1 12
5 12 10 0 14 38 9 44 -7 7 -20 -25 -52 -74 -71 -42 -17 -47 -23 -29 -41 8 -8
8 -13 0 -17 -6 -4 -11 -1 -11 7 0 20 -25 28 -39 14 -6 -6 -11 -7 -11 -1 0 5
-4 3 -9 -4 -5 -8 -20 -15 -33 -15 -18 -2 -24 -6 -20 -16 3 -9 1 -12 -6 -7 -7
4 -12 2 -12 -4 0 -7 -6 -10 -13 -7 -9 3 -14 -7 -16 -36 -1 -23 -5 -44 -9 -47
-10 -7 -10 -60 0 -60 4 0 8 -7 8 -17 0 -9 -3 -14 -6 -10 -12 12 -35 -23 -29
-43 3 -11 2 -20 -3 -20 -5 0 -7 -14 -4 -30 5 -38 -19 -41 -50 -5 -12 14 -27
25 -33 25 -18 0 -16 -57 1 -64 9 -3 12 -11 8 -17 -4 -8 1 -7 16 1 12 6 28 9
36 6 9 -3 12 -1 9 4 -3 6 -2 10 4 10 14 0 23 -18 13 -24 -5 -3 -8 -20 -7 -38
1 -18 -6 -42 -14 -52 -9 -11 -10 -16 -3 -12 15 9 16 -6 0 -22 -9 -9 -9 -12 1
-12 7 0 9 -5 6 -10 -4 -6 -11 -7 -17 -4 -7 4 -8 2 -4 -4 4 -6 12 -9 19 -6 15
5 54 -33 44 -43 -4 -3 -7 -1 -7 5 0 6 -19 17 -42 23 -49 14 -55 16 -65 18 -4
0 6 15 23 33 16 18 22 27 13 20 -13 -9 -20 -8 -38 9 -21 20 -21 22 -4 35 10 7
13 14 6 14 -7 0 -10 7 -6 17 5 13 2 15 -15 11 -23 -6 -38 6 -44 37 -1 11 -6
22 -9 25 -4 3 -9 15 -13 28 -6 16 -3 22 8 22 18 0 21 15 6 25 -5 3 -10 0 -10
-7 -1 -7 -11 -1 -23 14 -16 20 -26 25 -37 18 -25 -16 -36 -11 -12 6 20 14 33
42 13 30 -12 -8 -27 13 -35 46 -3 16 -1 30 5 34 8 5 4 12 -10 23 -23 18 -34
52 -20 61 15 10 -3 50 -21 50 -13 0 -17 5 -13 20 3 11 0 27 -7 35 -7 8 -10 24
-7 36 3 12 0 22 -9 26 -11 4 -11 8 2 21 13 12 17 13 24 2 19 -30 15 28 -6 89
-13 36 -20 69 -17 75 3 5 1 6 -5 2 -11 -7 -16 12 -15 51 1 7 -3 11 -7 8 -10
-6 -22 54 -13 68 3 5 1 7 -5 3 -24 -15 -42 120 -18 136 8 5 7 8 -2 8 -9 0 -10
5 -3 18 10 18 11 24 11 48 0 9 5 12 12 8 7 -4 10 -4 6 1 -4 4 -2 15 5 24 10
14 10 14 -4 4 -14 -11 -16 -7 -17 32 0 25 4 45 9 45 4 0 6 7 3 15 -4 8 -2 15
3 15 5 0 10 14 11 31 1 17 8 41 14 53 7 11 14 32 16 46 2 13 7 27 10 30 4 3 8
14 8 25 0 13 6 20 17 19 26 -3 20 6 -15 20 l-31 14 31 7 c18 3 30 10 27 15 -3
5 -1 11 5 15 6 4 8 11 5 16 -4 5 1 9 9 9 8 0 18 4 21 10 4 6 -1 7 -11 3 -13
-5 -15 -3 -8 8 13 21 14 40 1 33 -7 -3 -5 0 3 8 9 7 15 20 15 28 0 19 41 53
55 45 6 -4 7 -11 4 -17 -4 -7 -2 -8 4 -4 18 11 -9 47 -30 41 -16 -6 -20 16 -5
31 4 4 -1 13 -11 21 -16 12 -16 13 0 7 10 -3 18 -1 18 4 0 6 11 23 24 37 24
25 25 25 31 6 3 -12 4 -25 1 -30 -4 -5 1 -11 10 -13 18 -3 84 53 84 72 0 6 4
9 9 5 6 -3 14 2 19 11 5 10 23 18 38 19 35 1 72 21 61 31 -5 5 -12 2 -17 -6
-9 -14 -50 -22 -50 -9 0 4 9 11 20 14 11 3 20 13 20 20 0 8 8 12 20 10 11 -2
19 -1 17 3 -1 4 0 8 3 9 3 1 18 6 33 12 15 6 64 13 108 17 43 3 88 7 99 9 11
2 18 0 15 -6 -4 -5 0 -9 7 -9 16 0 15 -68 -2 -100 -6 -11 -8 -26 -4 -32 4 -6
3 -8 -4 -4 -6 3 -13 2 -17 -4 -3 -5 1 -10 10 -10 11 0 15 -6 11 -17 -3 -10 -8
-31 -10 -48 -3 -16 -10 -44 -15 -61 -6 -20 -5 -37 2 -50 6 -10 12 -23 13 -29
0 -5 2 -16 2 -22 1 -7 7 -12 13 -10 6 1 16 -6 22 -16 10 -14 9 -20 -3 -28 -12
-8 -11 -9 6 -4 17 4 30 -6 64 -52 24 -32 52 -66 62 -75 15 -13 17 -22 9 -36
-7 -14 -7 -19 4 -19 7 0 11 7 8 16 -3 9 7 3 21 -12 14 -16 30 -26 35 -22 5 3
12 1 15 -4 4 -6 -7 -8 -24 -6 -17 2 -28 0 -25 -4 6 -11 -11 -25 -66 -55 -103
-55 -212 -116 -279 -155 -8 -5 -14 -14 -12 -21 1 -6 -2 -9 -7 -6 -22 14 -37
-5 -34 -44 1 -21 -1 -42 -7 -45 -5 -3 -7 -12 -4 -20 5 -11 27 -4 104 35 54 27
100 46 104 43 3 -4 6 -1 6 7 0 10 3 10 15 0 12 -10 15 -10 15 4 0 9 6 16 13
16 7 0 29 9 50 20 21 11 42 18 47 15 6 -4 10 -2 10 3 0 10 60 38 72 34 4 -1
24 7 43 18 41 23 49 25 39 8 -4 -7 3 -4 16 7 19 17 22 17 17 3 -3 -10 1 -22
11 -29 14 -11 15 -11 6 0 -14 15 -7 51 10 52 30 2 50 9 57 21 5 7 9 9 9 4 0
-5 7 -3 15 4 12 10 15 10 15 -1 0 -9 3 -10 8 -3 4 6 15 11 24 11 15 0 15 -3 5
-15 -10 -13 -9 -14 10 -3 19 9 28 8 50 -6 39 -24 39 -23 25 -32 -9 -5 -1 -16
28 -36 22 -15 40 -32 40 -38 0 -5 -7 -3 -17 4 -15 13 -15 12 -2 -8 7 -12 15
-20 17 -18 8 8 10 55 3 50 -13 -7 -52 25 -45 37 5 7 2 8 -6 3 -8 -5 -11 -4 -6
3 4 6 13 9 21 6 8 -4 12 -10 9 -15 -3 -5 3 -12 13 -16 10 -3 26 -15 36 -27 10
-12 15 -14 11 -6 -4 8 6 2 23 -14 18 -17 29 -34 26 -39 -3 -4 1 -7 8 -6 22 3
49 -12 49 -27 0 -8 3 -13 8 -13 19 3 46 -3 34 -8 -10 -4 -9 -8 4 -18 14 -10
23 -10 37 -1 15 8 21 8 24 -1 3 -7 9 -13 14 -13 4 0 6 7 3 15 -7 18 26 21 43
4 7 -7 10 -4 9 10 0 11 -10 27 -21 36 -11 9 -14 14 -7 10 16 -8 16 12 -1 22
-7 4 -20 19 -28 33 -14 22 -24 25 -70 25 -49 0 -53 2 -60 27 -4 17 -3 27 3 25
21 -4 19 21 -2 28 -13 4 -19 12 -16 21 3 8 1 14 -4 14 -5 0 -7 7 -4 15 4 11 0
15 -16 15 -18 0 -21 4 -16 24 4 15 0 28 -9 36 -8 7 -13 16 -10 20 14 23 -121
63 -205 61 -53 -1 -67 -5 -90 -26 -22 -20 -27 -40 -7 -30 6 4 5 1 -4 -7 -8 -7
-24 -25 -33 -40 -19 -29 -16 -32 29 -29 11 1 29 -5 40 -13 18 -14 18 -15 3
-16 -10 0 -18 4 -18 8 0 5 -7 9 -15 9 -8 0 -15 -4 -15 -9 0 -5 -5 -6 -11 -2
-8 4 -8 0 0 -15 11 -20 8 -25 -12 -22 -5 1 -6 -3 -2 -9 3 -5 2 -10 -4 -10 -11
0 -26 39 -17 47 3 3 -1 12 -9 20 -8 8 -15 19 -15 25 0 6 3 8 6 5 8 -8 64 68
64 86 0 2 -6 4 -12 5 -7 0 -23 3 -34 7 -15 5 -23 2 -27 -9 -4 -10 -1 -16 8
-16 16 0 20 -25 6 -35 -5 -3 -17 13 -27 35 -10 22 -25 40 -33 41 -14 0 -14 1
0 11 15 10 14 14 -5 42 -12 17 -43 53 -69 80 -34 34 -45 52 -38 59 6 6 11 15
11 21 0 5 -6 2 -13 -8 -12 -16 -15 -15 -42 10 -17 14 -24 23 -18 20 9 -5 11
-2 7 8 -3 9 -11 13 -16 10 -6 -4 -6 1 1 13 6 11 7 23 4 27 -3 3 0 6 7 6 7 0
11 3 7 6 -3 4 1 13 9 21 8 8 11 20 7 26 -4 7 0 8 11 4 10 -4 15 -3 11 3 -3 6
-13 10 -21 10 -12 0 -12 4 -4 20 6 11 7 20 3 20 -4 0 -1 5 7 10 8 5 15 17 16
27 1 28 15 54 25 47 5 -3 7 -9 4 -14 -3 -5 -2 -11 3 -14 4 -2 8 6 8 19 0 13
-3 22 -6 20 -3 -2 -12 0 -20 6 -13 7 -12 9 2 9 9 0 20 5 24 12 5 7 3 8 -5 3
-9 -5 -9 -1 1 14 7 12 17 21 22 21 4 0 3 7 -4 15 -10 12 -10 15 0 15 7 0 10 6
7 13 -3 7 1 21 9 32 8 10 14 31 14 47 l0 27 -81 -4 c-44 -3 -86 -8 -92 -12 -7
-4 -21 -8 -32 -9 -31 -3 -137 -24 -170 -34 -16 -5 -48 -11 -70 -14 -22 -2 -53
-11 -69 -19 -26 -14 -32 -13 -88 15 -34 16 -72 41 -84 54 -13 12 -24 21 -24
18 0 -3 -12 9 -28 28 -15 18 -36 41 -47 51 -11 10 -14 16 -8 12 7 -3 13 -1 13
5 0 10 34 27 69 34 9 2 23 6 31 9 48 18 83 26 91 21 5 -3 9 0 9 7 0 6 8 9 20
6 10 -3 20 -1 22 3 2 4 14 11 27 15 15 5 21 4 17 -3 -3 -6 -2 -14 4 -17 6 -4
9 -1 8 5 -3 14 57 38 88 35 11 -1 21 5 22 12 1 7 3 20 4 28 1 8 6 15 11 15 5
0 7 -7 3 -15 -3 -8 0 -15 7 -16 60 -4 75 -3 71 3 -3 4 5 6 16 5 19 -1 25 -10
20 -32 -1 -5 2 -7 6 -3 4 4 12 3 19 -2 8 -7 12 -5 12 5 0 8 -4 12 -8 9 -4 -2
-10 0 -13 5 -12 18 18 29 98 36 27 3 54 8 60 13 6 4 32 8 58 7 27 0 48 3 48 7
0 4 10 8 23 8 12 0 47 2 77 4 30 2 98 7 150 10 52 3 95 6 95 7 0 6 144 2 153
-4 7 -6 15 -7 19 -3 3 3 1 6 -6 6 -7 0 -10 4 -6 10 4 6 15 6 30 0 16 -6 25 -6
25 0 0 5 6 7 14 4 8 -3 17 -1 21 5 8 14 -25 27 -72 30 -7 1 -13 5 -13 10 0 9
79 5 88 -4 2 -1 4 -12 5 -23 1 -18 7 -20 59 -19 32 1 58 -2 58 -7 0 -5 6 -4
13 1 6 6 32 8 57 6 25 -2 68 -5 97 -6 28 -1 55 -5 59 -9 4 -4 13 -3 21 3 9 8
13 8 13 1 0 -8 9 -8 32 0 26 9 33 8 44 -7 7 -10 11 -22 7 -28 -3 -6 -1 -7 5
-3 6 4 9 12 6 19 -3 8 12 12 51 12 30 0 55 -4 55 -10 0 -5 5 -4 11 2 14 14 41
5 32 -11 -4 -6 2 -4 12 4 10 8 16 10 13 5 -4 -6 3 -17 15 -25 20 -12 21 -12 8
4 -13 16 -12 17 12 11 24 -6 27 -4 24 14 -2 11 -6 23 -9 26 -6 6 9 86 18 95 3
2 3 -16 0 -42 -3 -26 -2 -49 3 -52 5 -4 7 -15 4 -26 -5 -19 8 -26 45 -21 6 1
12 -3 12 -9 0 -5 5 -10 11 -10 5 0 7 5 4 10 -3 6 1 10 9 10 9 0 16 -4 16 -9 0
-5 18 -8 40 -7 38 2 51 -6 30 -19 -13 -8 -13 -25 1 -25 5 0 8 4 5 9 -3 4 4 17
16 27 21 19 21 19 14 0 -5 -15 -4 -17 8 -7 11 9 17 8 30 -4 9 -10 16 -12 16
-5 0 6 5 8 10 5 6 -4 7 -11 4 -17 -4 -7 -2 -8 5 -4 6 4 8 12 5 18 -4 6 1 8 15
3 13 -4 28 -1 36 5 11 9 15 9 15 1 0 -6 -4 -11 -10 -11 -5 0 -10 -3 -10 -8 0
-4 21 -7 48 -7 26 1 53 -3 60 -8 6 -5 12 -6 12 -2 0 4 7 2 15 -5 13 -11 14
-10 8 6 -7 18 -6 18 19 2 19 -13 29 -15 34 -6 5 7 2 8 -7 3 -11 -6 -12 -5 -2
5 10 11 15 11 28 0 8 -7 15 -19 15 -27 0 -13 2 -13 17 -2 14 12 17 12 21 0 4
-11 8 -9 21 7 21 27 56 33 55 10 -1 -10 2 -15 7 -13 4 3 13 -4 19 -15 9 -17 8
-20 -7 -21 -10 0 -2 -6 17 -14 20 -7 34 -18 32 -26 -3 -11 -1 -11 9 -2 7 7 19
9 34 3 13 -5 26 -6 29 -3 3 4 6 0 6 -7 0 -7 3 -10 6 -7 4 3 16 2 27 -4 14 -8
18 -8 13 0 -4 6 -2 11 3 11 6 0 11 -8 11 -17 0 -14 2 -15 9 -4 5 7 14 10 21 6
9 -6 9 -9 -1 -16 -9 -5 -3 -7 15 -5 16 2 52 -5 80 -15 28 -11 59 -19 69 -19
10 0 15 -4 12 -10 -3 -6 1 -7 9 -4 9 3 16 10 16 15 0 5 7 9 15 9 8 0 15 -5 15
-11 0 -5 -4 -8 -9 -5 -5 4 -7 -3 -4 -13 3 -13 10 -18 21 -14 11 5 14 2 9 -9
-4 -13 0 -15 25 -11 19 3 34 0 39 -9 7 -10 10 -8 15 8 4 15 11 20 25 17 23 -7
24 -10 1 -31 -9 -10 -13 -14 -8 -10 5 4 24 -4 42 -17 18 -14 36 -25 41 -25 4
0 -3 7 -15 16 -17 12 -20 19 -12 34 5 10 7 25 5 33 -4 10 4 14 30 15 20 1 33
-3 30 -8 -3 -5 -12 -7 -19 -4 -23 9 -29 -16 -9 -34 10 -9 17 -24 16 -32 -2 -8
5 -20 15 -27 17 -10 21 -7 32 26 10 31 10 43 -1 62 -14 25 -16 30 -18 53 -1
19 -98 58 -105 43 -3 -9 -5 -9 -5 0 -1 16 -90 56 -157 72 -29 7 -61 21 -73 32
-12 11 -21 17 -21 14 0 -3 -9 -1 -21 5 -11 6 -28 13 -37 15 -9 2 -42 11 -72
20 -30 9 -62 18 -72 20 -9 2 -31 11 -50 21 -18 10 -48 16 -65 15 -18 -1 -33 1
-33 6 0 5 -10 9 -22 10 -34 1 -88 13 -108 23 -10 5 -20 6 -24 3 -3 -3 -6 0 -6
7 0 10 -5 9 -18 -3 -21 -19 -25 -47 -6 -47 15 0 26 -27 14 -35 -16 -10 -42 42
-35 67 4 13 4 20 -1 15 -4 -4 -18 3 -31 15 -13 12 -23 19 -23 16 0 -4 -22 0
-50 7 -43 11 -50 11 -50 -1 0 -8 -5 -14 -11 -14 -5 0 -8 4 -4 9 8 15 -10 22
-67 26 -98 8 -173 16 -198 20 -54 10 -88 15 -146 20 -33 3 -71 7 -82 10 -12 2
-22 -1 -22 -8 0 -8 -3 -8 -12 1 -15 15 -85 16 -90 0 -7 -20 -40 -18 -45 3 -7
27 -36 20 -43 -11 -4 -15 -9 -20 -13 -13 -4 6 -4 18 -1 27 3 9 2 17 -2 18 -31
5 -312 3 -308 -3 2 -4 0 -18 -5 -31 -9 -22 -10 -22 -10 -2 -1 30 -27 50 -45
35 -8 -7 -12 -20 -9 -31 3 -10 -2 -29 -11 -41 -15 -22 -15 -22 -11 13 4 33
-14 76 -26 63z m491 -55 c13 -9 13 -11 0 -20 -10 -6 -16 -6 -18 0 -2 6 -8 8
-13 5 -5 -4 -6 1 -3 9 7 18 13 19 34 6z m-496 -15 c3 -8 1 -15 -4 -15 -6 0
-10 7 -10 15 0 8 2 15 4 15 2 0 6 -7 10 -15z m136 -5 c0 -5 -5 -10 -11 -10 -5
0 -7 5 -4 10 3 6 8 10 11 10 2 0 4 -4 4 -10z m-609 -27 c13 -16 12 -17 -3 -4
-10 7 -18 15 -18 17 0 8 8 3 21 -13z m983 1 c3 -8 2 -12 -4 -9 -6 3 -10 10
-10 16 0 14 7 11 14 -7z m496 -8 c0 -14 -4 -28 -10 -31 -5 -3 -10 3 -10 14 0
12 -5 21 -11 21 -5 0 -7 5 -4 10 12 20 35 10 35 -14z m-1310 -7 c0 -6 -4 -7
-10 -4 -5 3 -10 11 -10 16 0 6 5 7 10 4 6 -3 10 -11 10 -16z m1526 7 c9 -9 10
-17 4 -21 -12 -7 -42 19 -33 29 9 9 13 8 29 -8z m-586 -17 c0 -5 -4 -9 -10 -9
-5 0 -10 7 -10 16 0 8 5 12 10 9 6 -3 10 -10 10 -16z m90 5 c0 -8 -4 -12 -10
-9 -5 3 -10 10 -10 16 0 5 5 9 10 9 6 0 10 -7 10 -16z m-1470 -14 c0 -5 -7 -7
-15 -4 -8 4 -12 10 -9 15 6 11 24 2 24 -11z m1975 -33 c8 3 15 1 15 -4 0 -5
-12 -10 -27 -11 -22 -1 -32 5 -45 27 -22 40 -11 46 19 11 14 -17 30 -27 38
-23z m-1642 12 c7 -25 -7 -33 -23 -14 -10 12 -10 15 1 16 10 0 11 2 2 6 -7 2
-13 9 -13 14 0 16 28 -2 33 -22z m-417 -16 c-7 -7 -26 7 -26 19 0 6 6 6 15 -2
9 -7 13 -15 11 -17z m319 16 c11 -17 -1 -21 -15 -4 -8 9 -8 15 -2 15 6 0 14
-5 17 -11z m1659 -4 c-4 -8 -11 -12 -16 -9 -6 4 -5 10 3 15 19 12 19 11 13 -6z
m-2101 -20 c-3 -9 -8 -14 -10 -11 -3 3 -2 9 2 15 9 16 15 13 8 -4z m244 -17
c2 -17 0 -19 -7 -8 -5 8 -6 18 -4 22 8 12 10 10 11 -14z m2113 2 c0 -5 -2 -10
-4 -10 -3 0 -8 5 -11 10 -3 6 -1 10 4 10 6 0 11 -4 11 -10z m-158 -36 c-8 -14
-9 -13 -9 10 0 18 3 24 9 18 7 -7 7 -16 0 -28z m283 16 c-3 -5 2 -10 12 -10
15 0 16 -2 3 -10 -8 -5 -24 -10 -35 -10 -17 0 -17 2 -5 10 8 5 11 10 5 10 -5
0 -3 5 5 10 19 12 23 12 15 0z m249 -51 c-7 -11 -34 -12 -34 -1 0 14 11 21 26
15 8 -3 11 -9 8 -14z m-3099 -19 c3 -5 1 -10 -4 -10 -6 0 -11 5 -11 10 0 6 2
10 4 10 3 0 8 -4 11 -10z m-127 -45 c-3 -3 -9 2 -12 12 -6 14 -5 15 5 6 7 -7
10 -15 7 -18z m91 3 c22 8 34 7 48 -3 16 -13 15 -14 -19 -15 -43 0 -49 -13
-16 -31 14 -8 18 -14 10 -17 -6 -2 -9 -8 -6 -14 4 -6 1 -9 -7 -6 -8 3 -14 12
-14 20 0 20 -25 49 -36 42 -5 -3 -9 -3 -9 0 0 2 -3 13 -7 23 -6 16 -5 16 10 4
13 -10 24 -11 46 -3z m-126 -13 c-3 -9 -8 -14 -10 -11 -3 3 -2 9 2 15 9 16 15
13 8 -4z m3227 -7 c0 -4 -4 -8 -9 -8 -6 0 -12 4 -15 8 -3 5 1 9 9 9 8 0 15 -4
15 -9z m184 -33 c-9 -14 -18 -25 -20 -25 -2 0 2 11 8 25 6 14 15 25 20 25 5 0
1 -11 -8 -25z m165 -1 c5 4 12 2 16 -4 3 -5 0 -11 -7 -11 -7 -1 -20 -2 -28 -3
-8 0 -20 4 -26 9 -16 14 6 27 23 14 7 -6 17 -8 22 -5z m-3781 -59 c-3 -3 -9 2
-12 12 -6 14 -5 15 5 6 7 -7 10 -15 7 -18z m3775 -23 c-7 -2 -13 -8 -13 -14 0
-16 -23 -3 -26 15 -1 9 6 19 17 22 10 4 19 12 20 18 1 7 4 1 8 -13 5 -17 3
-26 -6 -28z m-3452 -8 c9 -16 14 -33 11 -38 -3 -5 0 -6 7 -2 14 9 41 -22 34
-40 -2 -6 6 -11 19 -11 40 -1 48 -3 48 -13 0 -5 -7 -7 -15 -4 -8 4 -22 1 -30
-6 -12 -10 -19 -10 -32 1 -17 12 -17 12 -1 -6 14 -15 20 -16 32 -5 13 10 16
10 16 0 0 -8 2 -11 5 -8 3 3 17 -4 30 -16 16 -14 21 -24 14 -33 -8 -8 -4 -10
13 -7 13 3 -1 -8 -30 -23 -51 -27 -52 -28 -47 -63 3 -19 10 -37 16 -39 6 -2 3
-11 -7 -22 -9 -10 -21 -16 -27 -12 -5 3 -7 1 -4 -4 4 -6 0 -16 -8 -23 -11 -9
-15 -9 -15 -1 0 7 -4 9 -10 6 -6 -4 -2 -15 10 -27 24 -26 25 -38 5 -38 -8 0
-15 5 -15 10 0 7 -7 7 -21 0 -20 -11 -60 -48 -58 -52 6 -10 -15 -47 -23 -42
-6 4 -6 -1 1 -14 14 -26 14 -32 0 -32 -5 0 -7 5 -3 12 4 7 3 8 -4 4 -6 -4 -17
-25 -23 -46 -7 -22 -16 -40 -22 -40 -5 0 -7 -7 -3 -15 3 -8 1 -15 -5 -15 -6 0
-8 -4 -5 -9 3 -5 -1 -11 -9 -15 -8 -3 -12 -12 -9 -21 4 -8 1 -15 -7 -15 -7 0
-9 -3 -6 -7 4 -3 1 -13 -6 -21 -10 -13 -9 -14 1 -8 11 6 11 4 4 -10 -6 -11
-18 -40 -27 -66 -12 -34 -20 -45 -31 -41 -8 3 -12 8 -10 11 3 3 1 11 -5 18 -8
10 -6 28 6 69 10 30 22 55 26 55 5 0 8 3 7 8 -4 14 14 72 20 68 4 -2 8 6 8 19
3 49 49 114 149 214 98 96 103 103 87 120 -16 16 -19 16 -49 -7 -18 -13 -30
-28 -27 -33 3 -5 0 -8 -6 -7 -15 4 -140 -107 -168 -149 -12 -18 -22 -40 -22
-48 0 -8 -4 -15 -10 -15 -5 0 -10 -5 -10 -11 0 -5 -10 -31 -22 -57 -12 -26
-22 -50 -22 -54 -1 -4 -7 -13 -13 -19 -10 -10 -13 -9 -13 7 0 11 -4 24 -9 30
-5 5 -11 20 -13 34 -1 14 -5 27 -8 30 -8 8 -32 74 -32 90 -1 8 -4 20 -8 25 -5
6 -11 27 -15 48 -4 20 -10 37 -14 37 -4 0 -7 10 -6 23 1 12 -2 25 -7 28 -4 3
-13 21 -18 40 l-10 34 20 -25 21 -25 -12 28 c-7 15 -15 27 -19 27 -13 0 -18
38 -6 51 8 9 8 10 -1 5 -6 -3 -14 -2 -18 4 -3 5 -1 10 5 10 7 0 9 7 6 15 -6
18 23 17 37 0 5 -6 7 -3 4 6 -3 9 0 23 6 30 7 7 2 5 -10 -4 -14 -12 -23 -15
-28 -8 -3 6 -1 11 5 11 6 0 9 4 6 9 -5 8 111 66 127 63 4 -1 7 3 7 9 0 5 5 7
10 4 6 -3 10 -1 10 5 0 6 5 8 10 5 6 -3 10 0 10 7 0 10 2 10 9 -1 6 -10 10
-10 16 -1 7 11 25 19 74 35 15 5 21 4 17 -3 -3 -6 -1 -14 5 -18 7 -4 9 -3 6 2
-10 17 7 33 48 47 53 19 66 16 86 -19z m35 5 c3 -22 5 -23 14 -9 8 13 10 12
10 -2 0 -21 -15 -24 -27 -5 -10 16 -14 41 -5 32 4 -4 8 -11 8 -16z m97 -289
c-10 -11 -24 -20 -31 -20 -9 0 -5 8 9 20 31 25 43 25 22 0z m-199 -318 c3 -5
-1 -9 -9 -9 -8 0 -15 4 -15 9 0 4 4 8 9 8 6 0 12 -4 15 -8z m946 -193 c0 -11
-7 -19 -15 -19 -18 0 -20 16 -2 24 10 5 10 7 0 12 -7 3 -13 10 -13 16 0 6 6 6
15 -2 8 -7 15 -21 15 -31z m-1220 1 c0 -5 -2 -10 -4 -10 -3 0 -8 5 -11 10 -3
6 -1 10 4 10 6 0 11 -4 11 -10z m1390 -10 c0 -5 -5 -10 -11 -10 -5 0 -7 5 -4
10 3 6 8 10 11 10 2 0 4 -4 4 -10z m57 -73 l-23 -26 4 29 c2 17 8 28 12 25 5
-3 12 0 16 7 5 8 9 9 11 1 2 -6 -7 -22 -20 -36z m113 -11 c0 -3 -4 -8 -10 -11
-5 -3 -10 -1 -10 4 0 6 5 11 10 11 6 0 10 -2 10 -4z m-326 -25 c16 -17 16 -19
0 -25 -12 -4 -15 -2 -10 9 3 8 1 15 -4 15 -6 0 -10 5 -10 10 0 14 5 13 24 -9z
m600 -142 c-3 -5 4 -9 14 -9 23 0 34 -21 21 -41 -6 -10 -9 -10 -9 -1 0 6 -12
12 -26 12 -14 0 -23 -4 -19 -10 3 -5 -1 -10 -10 -10 -11 0 -15 5 -11 15 3 8
-4 21 -17 30 -16 11 -18 15 -5 15 8 0 21 7 28 15 10 12 16 13 26 4 8 -6 11
-15 8 -20z m-990 -34 c-4 -8 -11 -12 -16 -9 -6 4 -5 10 3 15 19 12 19 11 13
-6z m133 -247 c-2 -19 -9 -34 -18 -34 -8 -1 -17 -2 -21 -3 -5 0 -10 0 -11 2
-2 1 -11 -4 -20 -11 -20 -17 -61 2 -53 25 3 8 6 21 6 29 0 8 5 14 11 14 5 0 7
-6 3 -12 -6 -10 -5 -10 7 -1 13 11 44 19 82 22 15 1 17 -5 14 -31z m67 -10
c-3 -4 -11 -5 -19 -2 -11 5 -12 9 -2 19 12 13 31 -1 21 -17z m-100 -60 c-3 -4
-9 -8 -15 -8 -5 0 -9 4 -9 8 0 5 7 9 15 9 8 0 12 -4 9 -9z m143 -13 c0 -8 -4
-15 -9 -15 -10 0 -11 14 -1 23 9 10 10 9 10 -8z m-102 -125 c3 -5 12 -7 20 -4
10 4 12 0 8 -15 -3 -12 -8 -21 -12 -21 -12 1 -41 27 -41 39 0 13 17 15 25 1z
m75 -106 c0 -2 -9 -4 -21 -4 -11 0 -18 4 -14 10 5 8 35 3 35 -6z m-525 -14 c3
-5 -1 -10 -10 -10 -9 0 -13 5 -10 10 3 6 8 10 10 10 2 0 7 -4 10 -10z m436
-93 c-1 -12 -15 -9 -19 4 -3 6 1 10 8 8 6 -3 11 -8 11 -12z m-44 -19 c1 -10
-2 -16 -6 -14 -5 3 -6 -5 -4 -18 4 -18 -1 -28 -17 -36 -15 -8 -20 -18 -17 -31
3 -12 0 -19 -10 -19 -8 0 -12 4 -9 9 9 14 -16 19 -43 9 -14 -5 -30 -7 -38 -4
-7 3 -12 0 -10 -6 1 -5 -6 -12 -15 -13 -11 -2 -15 3 -13 16 6 29 15 40 27 33
7 -4 8 -2 4 5 -4 6 0 14 10 18 10 3 26 15 37 26 12 12 28 17 43 14 13 -2 21 0
17 6 -3 5 0 12 6 16 21 13 37 8 38 -11z m47 -50 c-4 -14 0 -21 15 -25 12 -3
21 -13 20 -22 0 -10 -2 -11 -6 -3 -2 6 -11 12 -18 12 -7 0 -16 7 -19 16 -3 8
-10 13 -15 10 -5 -3 -7 2 -4 12 2 10 11 19 19 19 9 0 12 -7 8 -19z m-73 -85
c4 -43 10 -67 18 -72 14 -9 8 -59 -6 -54 -7 3 -13 -2 -13 -11 0 -9 -5 -16 -11
-16 -5 0 -7 6 -3 13 5 8 2 8 -9 -2 -18 -14 -22 -22 -9 -20 25 4 32 -4 30 -33
-3 -34 -40 -78 -64 -78 -8 0 -14 -5 -14 -11 0 -6 -7 -9 -15 -5 -8 3 -15 1 -15
-4 0 -6 -5 -10 -11 -10 -5 0 -7 6 -3 13 6 9 5 9 -7 0 -8 -6 -27 -14 -42 -17
-29 -5 -36 10 -14 33 10 11 10 13 0 7 -9 -5 -13 0 -13 14 0 13 4 19 11 14 8
-5 8 -1 0 13 -6 11 -8 23 -5 26 3 3 7 13 9 24 1 10 8 17 13 16 7 -2 9 4 5 14
-5 12 -3 14 7 8 9 -6 11 -4 5 5 -6 10 -10 10 -19 -2 -6 -8 -17 -13 -24 -10 -9
2 -4 9 13 18 15 8 31 11 36 8 5 -3 9 1 9 8 0 9 3 9 10 -2 9 -14 15 -7 11 14
-1 5 5 6 13 3 8 -3 20 1 27 9 7 9 20 13 29 11 9 -2 24 1 34 8 16 12 16 14 -6
30 -13 10 -16 15 -7 12 9 -3 16 1 16 9 0 7 -5 10 -10 7 -6 -3 -7 -1 -3 5 8 13
26 16 27 5z m-447 -195 c4 -20 3 -28 -7 -28 -11 0 -16 35 -8 59 2 8 8 -4 15
-31z m898 -35 c-6 -2 -10 -8 -7 -12 2 -5 -9 -8 -26 -9 -40 -1 -23 23 18 25 15
1 22 -1 15 -4z m-876 -24 c9 -15 -23 -10 -35 5 -10 12 -8 13 9 9 11 -3 23 -9
26 -14z m914 1 c-18 -11 -17 -18 5 -34 13 -9 25 -11 36 -5 28 15 73 -55 47
-73 -9 -6 -5 -7 10 -3 13 4 22 2 22 -4 0 -6 -5 -11 -11 -11 -5 0 -7 -5 -4 -10
4 -6 10 -8 15 -5 4 3 7 -2 6 -12 -2 -14 -25 -30 -48 -32 -4 -1 -5 8 -3 19 2
11 -1 20 -6 20 -5 0 -9 -8 -7 -17 2 -13 -5 -19 -26 -21 -20 -3 -26 0 -21 9 5
8 4 10 -3 5 -18 -11 -1 -37 22 -34 11 2 23 6 26 10 3 4 12 3 20 -2 11 -7 12
-10 2 -10 -7 0 -10 -4 -7 -10 3 -5 2 -10 -4 -10 -5 0 -12 4 -16 10 -4 6 -15 6
-30 0 -14 -5 -25 -6 -25 -1 0 16 -27 20 -52 7 -13 -7 -33 -9 -43 -6 -11 4 -24
4 -30 0 -16 -12 -75 -17 -75 -7 0 6 -9 2 -20 -8 -11 -10 -20 -15 -20 -12 0 3
-18 0 -39 -8 -22 -7 -42 -11 -45 -8 -3 4 -6 0 -6 -7 0 -7 -3 -10 -6 -7 -4 3
-15 2 -26 -4 -14 -8 -17 -14 -9 -23 6 -7 9 -16 6 -19 -3 -4 -2 -4 3 -1 4 3 7
11 7 17 0 25 30 11 33 -15 2 -19 8 -25 18 -21 8 3 14 0 14 -6 0 -6 -4 -11 -10
-11 -5 0 -10 -12 -10 -27 0 -25 -1 -25 -18 -10 -10 10 -24 17 -31 17 -8 0 -11
8 -8 19 3 15 1 18 -11 14 -12 -5 -14 -1 -10 15 4 12 2 22 -4 22 -5 0 -7 4 -4
8 3 5 -1 9 -9 9 -8 0 -15 -5 -15 -10 0 -5 -7 -4 -15 3 -13 11 -14 10 -9 -6 4
-10 3 -16 -1 -11 -5 4 -19 0 -33 -9 -13 -8 -30 -13 -38 -10 -8 3 -14 1 -14 -5
0 -5 -6 -4 -13 3 -15 13 -18 38 -5 38 4 0 8 5 8 11 0 5 -6 7 -12 3 -9 -6 -9
-3 0 9 8 9 11 21 7 27 -3 5 -2 10 4 10 10 0 8 31 -4 49 -3 5 0 13 6 16 5 4 8
14 4 22 -4 13 -3 14 10 3 12 -10 13 -16 3 -27 -6 -8 -7 -13 -2 -12 27 5 35 -2
28 -23 -6 -23 -6 -23 13 -3 14 14 17 22 9 27 -8 6 -8 8 1 8 6 0 14 -4 17 -9 3
-5 15 -11 26 -14 11 -3 18 -1 14 4 -3 5 -13 9 -22 9 -12 0 -13 3 -4 12 8 8 15
8 27 -2 12 -10 15 -10 15 3 0 9 8 16 18 15 9 0 31 5 49 10 17 6 34 8 37 4 3
-3 6 0 6 5 0 6 8 10 17 9 9 -2 28 3 41 10 14 7 30 10 37 8 7 -3 15 2 19 11 4
13 10 14 26 5 15 -8 20 -8 20 1 0 6 7 9 14 6 20 -8 30 26 17 52 -9 15 -7 20
12 25 24 6 49 -17 41 -38 -3 -7 5 -12 20 -12 18 0 22 3 15 12 -15 18 -8 73 9
67 10 -4 11 -8 2 -13z m-735 1 c3 -5 1 -12 -5 -16 -5 -3 -10 1 -10 9 0 18 6
21 15 7z m184 -112 c-17 -10 -33 15 -24 38 5 14 8 13 22 -6 13 -19 13 -25 2
-32z m371 41 c0 -5 -2 -10 -4 -10 -3 0 -8 5 -11 10 -3 6 -1 10 4 10 6 0 11 -4
11 -10z m-220 -12 c0 -4 -4 -8 -9 -8 -6 0 -12 4 -15 8 -3 5 1 9 9 9 8 0 15 -4
15 -9z m-406 -59 c5 7 15 7 31 -1 13 -6 22 -15 19 -20 -4 -6 -10 -6 -17 1 -7
7 -16 7 -29 0 -24 -13 -48 4 -48 34 0 20 0 20 19 -2 11 -13 22 -18 25 -12z
m970 3 c3 -5 -1 -9 -9 -9 -8 0 -12 4 -9 9 3 4 7 8 9 8 2 0 6 -4 9 -8z m-810
-47 c3 -8 1 -15 -3 -15 -5 0 -8 -11 -6 -25 1 -14 -1 -25 -4 -25 -3 0 -12 -9
-19 -21 -10 -16 -10 -19 -1 -13 9 5 10 2 6 -10 -4 -10 -7 -24 -7 -32 0 -9 -4
-13 -8 -10 -5 3 -9 -1 -9 -9 0 -8 4 -12 9 -9 4 3 8 0 8 -5 0 -6 -12 -11 -26
-11 -16 0 -23 4 -18 12 4 7 3 8 -4 4 -7 -4 -12 -2 -12 3 0 6 -5 11 -12 11 -7
0 -5 -7 5 -18 11 -12 13 -22 6 -34 -6 -11 -6 -19 1 -23 5 -3 10 1 10 10 0 9 5
13 10 10 6 -4 7 -11 4 -17 -4 -6 -1 -9 7 -6 8 2 21 18 29 35 14 30 16 31 35
16 17 -14 17 -15 2 -9 -15 5 -17 2 -12 -14 4 -11 2 -20 -4 -20 -5 0 -8 -9 -6
-19 2 -13 -3 -21 -17 -24 -14 -4 -19 -12 -16 -29 2 -14 -2 -22 -9 -21 -7 2
-10 -4 -6 -13 5 -14 3 -14 -14 -3 -14 8 -19 19 -15 33 3 12 7 15 10 7 3 -8 11
-1 23 18 10 17 24 31 29 31 6 0 8 5 4 11 -5 8 -9 7 -15 -4 -16 -28 -80 0 -74
33 2 10 -3 26 -10 37 -20 26 -18 31 10 28 14 -2 23 0 20 5 -3 5 1 11 7 13 9 4
10 6 1 6 -6 1 -15 -4 -18 -9 -10 -16 -48 38 -41 57 4 8 1 22 -5 29 -13 15 -9
17 15 8 9 -3 14 -10 11 -14 -3 -4 3 -14 12 -21 15 -12 16 -12 8 1 -17 28 -16
50 2 43 11 -4 14 -3 9 5 -4 8 0 12 11 13 28 1 54 7 61 13 10 10 20 7 26 -9z
m-165 -21 c-13 -16 -22 -12 -25 10 -1 9 5 12 17 9 15 -4 17 -8 8 -19z m1059
-4 c15 -1 15 -2 -1 -11 -23 -13 -57 9 -35 22 7 5 15 4 16 -1 2 -6 11 -10 20
-10z m-438 -44 c0 -11 -19 -15 -25 -6 -3 5 1 10 9 10 9 0 16 -2 16 -4z m312
-40 c15 -2 29 0 32 5 2 5 3 4 2 -3 -2 -7 -18 -13 -37 -14 -43 -1 -50 3 -42 22
3 9 8 12 12 5 4 -5 18 -12 33 -15z m-247 -36 c3 -5 1 -10 -4 -10 -6 0 -11 5
-11 10 0 6 2 10 4 10 3 0 8 -4 11 -10z"/>
<path d="M806 3681 c8 -9 44 -11 44 -3 0 4 -11 8 -25 8 -13 0 -22 -2 -19 -5z"/>
<path d="M816 3647 c3 -10 9 -15 12 -12 3 3 0 11 -7 18 -10 9 -11 8 -5 -6z"/>
<path d="M753 3635 c0 -8 6 -16 13 -19 7 -3 10 2 7 15 -6 22 -20 26 -20 4z"/>
<path d="M675 3629 c-4 -6 -5 -12 -2 -15 2 -3 7 2 10 11 7 17 1 20 -8 4z"/>
<path d="M791 3607 c-13 -21 -12 -21 5 -5 10 10 16 20 13 22 -3 3 -11 -5 -18
-17z"/>
<path d="M615 3610 c-4 -6 -10 -8 -15 -5 -10 6 -7 -21 4 -32 4 -4 7 -3 6 2 -5
21 1 29 10 15 7 -12 9 -10 7 8 -1 25 -3 26 -12 12z"/>
<path d="M817 3601 c-4 -17 -3 -21 5 -13 5 5 8 16 6 23 -3 8 -7 3 -11 -10z"/>
<path d="M747 3599 c7 -7 15 -10 18 -7 3 3 -2 9 -12 12 -14 6 -15 5 -6 -5z"/>
<path d="M722 3581 c-10 -6 -10 -10 3 -21 13 -11 14 -10 9 5 -6 14 -4 16 6 10
9 -5 11 -4 6 3 -8 14 -7 14 -24 3z"/>
<path d="M840 3575 c-7 -9 -11 -17 -9 -20 3 -2 10 5 17 15 14 24 10 26 -8 5z"/>
<path d="M533 3565 c-3 -9 -3 -18 -1 -21 3 -3 8 4 11 16 6 23 -1 27 -10 5z"/>
<path d="M571 3567 c2 -1 13 -9 24 -17 19 -14 19 -14 6 3 -7 9 -18 17 -24 17
-6 0 -8 -1 -6 -3z"/>
<path d="M657 3556 c-4 -10 -1 -13 8 -9 8 3 12 9 9 14 -7 12 -11 11 -17 -5z"/>
<path d="M800 3560 c-9 -6 -10 -10 -3 -10 6 0 15 5 18 10 8 12 4 12 -15 0z"/>
<path d="M550 3540 c0 -5 7 -7 15 -4 11 5 14 1 9 -12 -5 -15 -4 -16 4 -4 6 8
8 18 6 22 -7 11 -34 10 -34 -2z"/>
<path d="M620 3529 c0 -5 -4 -8 -8 -5 -4 2 -14 -5 -22 -17 -12 -20 -12 -21 3
-9 9 8 20 11 24 9 5 -3 10 3 10 14 1 10 0 19 -3 19 -2 0 -4 -5 -4 -11z"/>
<path d="M873 3527 c0 -8 6 -14 14 -14 9 0 10 4 2 14 -6 7 -12 13 -14 13 -1 0
-2 -6 -2 -13z"/>
<path d="M477 3519 c7 -7 15 -10 18 -7 3 3 -2 9 -12 12 -14 6 -15 5 -6 -5z"/>
<path d="M513 3508 c-2 -18 0 -20 7 -8 12 18 13 30 2 30 -4 0 -9 -10 -9 -22z"/>
<path d="M926 3518 c3 -5 10 -6 15 -3 13 9 11 12 -6 12 -8 0 -12 -4 -9 -9z"/>
<path d="M554 3496 c1 -8 5 -18 8 -22 4 -3 5 1 4 10 -1 8 -5 18 -8 22 -4 3 -5
-1 -4 -10z"/>
<path d="M675 3491 c-3 -5 -2 -12 3 -15 5 -3 9 1 9 9 0 17 -3 19 -12 6z"/>
<path d="M439 3479 c-10 -7 -5 -8 14 -5 31 5 33 0 11 -34 l-16 -25 20 22 c11
12 23 19 27 15 4 -4 3 2 -2 12 -12 22 -34 28 -54 15z"/>
<path d="M513 3465 c0 -8 4 -12 9 -9 5 3 6 10 3 15 -9 13 -12 11 -12 -6z"/>
<path d="M420 3439 c0 -5 5 -7 10 -4 6 3 10 8 10 11 0 2 -4 4 -10 4 -5 0 -10
-5 -10 -11z"/>
<path d="M466 3362 c-3 -5 1 -9 9 -9 8 0 12 4 9 9 -3 4 -7 8 -9 8 -2 0 -6 -4
-9 -8z"/>
<path d="M615 2859 c-4 -6 -5 -12 -2 -15 2 -3 7 2 10 11 7 17 1 20 -8 4z"/>
<path d="M1490 2136 c0 -2 8 -10 18 -17 15 -13 16 -12 3 4 -13 16 -21 21 -21
13z"/>
<path d="M1315 1650 c-3 -5 -4 -14 -1 -19 4 -5 1 -12 -4 -14 -6 -3 -5 -4 1 -3
7 1 13 12 14 24 2 24 -1 27 -10 12z"/>
<path d="M1277 1613 c-10 -9 -9 -23 1 -23 5 0 9 7 9 15 0 17 -1 18 -10 8z"/>
<path d="M1355 1609 c-4 -6 -5 -12 -2 -15 2 -3 7 2 10 11 7 17 1 20 -8 4z"/>
<path d="M1293 1576 c-4 -5 -1 -6 7 -1 10 6 12 4 6 -10 -7 -18 -6 -18 14 0 11
10 20 19 20 19 0 7 -43 -1 -47 -8z"/>
<path d="M1280 1540 c8 -5 20 -10 25 -10 6 0 3 5 -5 10 -8 5 -19 10 -25 10 -5
0 -3 -5 5 -10z"/>
<path d="M1257 1529 c7 -7 15 -10 18 -7 3 3 -2 9 -12 12 -14 6 -15 5 -6 -5z"/>
<path d="M1955 1430 c10 -11 20 -20 23 -20 3 0 -3 9 -13 20 -10 11 -20 20 -23
20 -3 0 3 -9 13 -20z"/>
<path d="M1890 1380 c0 -5 5 -10 11 -10 5 0 7 5 4 10 -3 6 -8 10 -11 10 -2 0
-4 -4 -4 -10z"/>
<path d="M2007 1359 c7 -7 15 -10 18 -7 3 3 -2 9 -12 12 -14 6 -15 5 -6 -5z"/>
<path d="M1853 1345 c0 -8 4 -12 9 -9 5 3 6 10 3 15 -9 13 -12 11 -12 -6z"/>
<path d="M1730 1339 c0 -5 5 -7 10 -4 6 3 10 8 10 11 0 2 -4 4 -10 4 -5 0 -10
-5 -10 -11z"/>
<path d="M1559 1313 c-13 -16 -12 -17 4 -4 9 7 17 15 17 17 0 8 -8 3 -21 -13z"/>
<path d="M1516 1307 c3 -10 9 -15 12 -12 3 3 0 11 -7 18 -10 9 -11 8 -5 -6z"/>
<path d="M1436 1293 c-6 -14 -5 -15 5 -6 7 7 10 15 7 18 -3 3 -9 -2 -12 -12z"/>
<path d="M1496 1287 c3 -10 9 -15 12 -12 3 3 0 11 -7 18 -10 9 -11 8 -5 -6z"/>
<path d="M1455 1280 c-3 -5 -2 -10 4 -10 5 0 13 5 16 10 3 6 2 10 -4 10 -5 0
-13 -4 -16 -10z"/>
<path d="M1550 1286 c0 -2 7 -7 16 -10 8 -3 12 -2 9 4 -6 10 -25 14 -25 6z"/>
<path d="M1430 1260 c0 -6 7 -10 15 -10 8 0 15 2 15 4 0 2 -7 6 -15 10 -8 3
-15 1 -15 -4z"/>
<path d="M1406 1243 c-4 -9 -2 -21 4 -27 8 -8 9 -6 4 8 -5 13 -4 17 4 12 8 -5
10 -2 6 8 -8 20 -10 20 -18 -1z"/>
<path d="M1485 1250 c-16 -7 -17 -9 -3 -9 9 -1 20 4 23 9 7 11 7 11 -20 0z"/>
<path d="M1166 1278 c4 -5 9 -7 12 -4 3 3 15 -2 26 -11 21 -18 21 -18 3 3 -16
20 -52 30 -41 12z"/>
<path d="M1182 1244 c10 -10 20 -16 22 -13 3 3 -5 11 -17 18 -21 13 -21 12 -5
-5z"/>
<path d="M1130 1240 c0 -5 9 -8 20 -7 21 1 18 10 -5 13 -8 1 -15 -2 -15 -6z"/>
<path d="M2490 3980 c0 -5 5 -10 11 -10 5 0 7 5 4 10 -3 6 -8 10 -11 10 -2 0
-4 -4 -4 -10z"/>
<path d="M2555 3970 c6 -10 4 -12 -9 -7 -10 4 -15 3 -11 -3 8 -13 35 -13 35
-1 0 6 -5 13 -12 17 -7 5 -8 3 -3 -6z"/>
<path d="M2610 3965 c-9 -11 -9 -15 -1 -15 7 0 9 -5 5 -12 -4 -7 -3 -10 1 -5
8 6 16 47 10 47 -2 0 -8 -7 -15 -15z"/>
<path d="M2000 3965 c0 -2 6 -8 13 -14 10 -8 14 -7 14 2 0 8 -6 14 -14 14 -7
0 -13 -1 -13 -2z"/>
<path d="M2114 3956 c5 -14 3 -17 -11 -12 -15 6 -16 5 -5 -5 17 -18 35 1 21
21 -9 12 -10 12 -5 -4z"/>
<path d="M2210 3955 c5 -7 6 -16 2 -21 -4 -5 -3 -5 2 -1 15 12 15 34 0 34 -9
0 -11 -4 -4 -12z"/>
<path d="M2349 3957 c6 -8 9 -16 6 -19 -3 -2 2 -5 10 -5 13 0 13 3 -2 19 -19
21 -31 25 -14 5z"/>
<path d="M2456 3958 c3 -5 10 -6 15 -3 13 9 11 12 -6 12 -8 0 -12 -4 -9 -9z"/>
<path d="M2500 3951 c0 -7 -5 -9 -12 -5 -7 5 -8 3 -3 -5 5 -9 10 -10 18 -2 6
6 8 14 4 18 -4 3 -7 1 -7 -6z"/>
<path d="M2910 3956 c0 -2 8 -10 18 -17 15 -13 16 -12 3 4 -13 16 -21 21 -21
13z"/>
<path d="M1925 3940 c-3 -6 1 -7 9 -4 18 7 21 14 7 14 -6 0 -13 -4 -16 -10z"/>
<path d="M1986 3942 c-3 -5 1 -9 9 -9 8 0 12 4 9 9 -3 4 -7 8 -9 8 -2 0 -6 -4
-9 -8z"/>
<path d="M2158 3943 c7 -3 16 -2 19 1 4 3 -2 6 -13 5 -11 0 -14 -3 -6 -6z"/>
<path d="M2265 3940 c-3 -6 1 -7 9 -4 18 7 21 14 7 14 -6 0 -13 -4 -16 -10z"/>
<path d="M2430 3940 c0 -5 5 -10 10 -10 6 0 10 5 10 10 0 6 -4 10 -10 10 -5 0
-10 -4 -10 -10z"/>
<path d="M2513 3931 c-9 -14 -9 -21 0 -30 8 -8 8 -11 -1 -11 -7 0 -12 -5 -12
-10 0 -6 11 -3 25 6 14 9 22 20 19 25 -3 5 -1 9 5 9 15 0 23 -18 11 -25 -5 -3
-10 -12 -10 -18 0 -7 5 -4 11 7 9 15 13 16 20 5 5 -8 9 -9 9 -3 0 17 -37 47
-50 39 -5 -3 -8 -11 -5 -16 4 -5 2 -9 -3 -9 -17 0 -22 13 -10 27 6 7 9 15 7
18 -3 2 -10 -4 -16 -14z"/>
<path d="M2840 3935 c-7 -8 -16 -13 -20 -10 -5 3 -12 0 -16 -6 -4 -7 -3 -9 4
-5 5 3 12 2 14 -3 1 -5 11 2 21 15 19 26 17 33 -3 9z"/>
<path d="M2953 3935 c0 -8 4 -12 9 -9 5 3 6 10 3 15 -9 13 -12 11 -12 -6z"/>
<path d="M2229 3923 c-13 -16 -12 -17 4 -4 16 13 21 21 13 21 -2 0 -10 -8 -17
-17z"/>
<path d="M2591 3930 c0 -8 4 -22 9 -30 12 -18 12 -2 0 25 -6 13 -9 15 -9 5z"/>
<path d="M2897 3919 c4 -13 8 -18 11 -10 2 7 -1 18 -6 23 -8 8 -9 4 -5 -13z"/>
<path d="M1773 3914 c0 -7 7 -10 15 -6 11 4 13 1 7 -9 -5 -8 -4 -11 0 -6 16
14 13 33 -5 33 -9 0 -17 -6 -17 -12z"/>
<path d="M1875 3921 c-3 -5 -2 -12 3 -15 5 -3 9 1 9 9 0 17 -3 19 -12 6z"/>
<path d="M1950 3919 c0 -5 5 -7 10 -4 6 3 10 8 10 11 0 2 -4 4 -10 4 -5 0 -10
-5 -10 -11z"/>
<path d="M2016 3914 c-3 -8 0 -16 7 -20 7 -4 9 -4 5 1 -4 4 0 13 8 20 15 11
15 12 1 12 -9 0 -18 -6 -21 -13z"/>
<path d="M2087 3919 c7 -7 15 -10 18 -7 3 3 -2 9 -12 12 -14 6 -15 5 -6 -5z"/>
<path d="M2125 3920 c-3 -6 1 -7 9 -4 18 7 21 14 7 14 -6 0 -13 -4 -16 -10z"/>
<path d="M2170 3920 c0 -5 5 -10 10 -10 6 0 10 5 10 10 0 6 -4 10 -10 10 -5 0
-10 -4 -10 -10z"/>
<path d="M2279 3928 c-7 -23 -4 -35 7 -35 9 0 11 4 4 12 -5 7 -7 15 -3 18 3 4
3 7 0 7 -4 0 -7 -1 -8 -2z"/>
<path d="M2390 3924 c0 -6 6 -17 14 -23 11 -9 16 -9 22 1 4 7 4 10 -1 6 -4 -4
-14 0 -21 10 -7 9 -14 12 -14 6z"/>
<path d="M2450 3920 c-8 -5 -10 -10 -5 -10 6 0 17 5 25 10 8 5 11 10 5 10 -5
0 -17 -5 -25 -10z"/>
<path d="M2625 3920 c-3 -5 -1 -10 4 -10 6 0 11 5 11 10 0 6 -2 10 -4 10 -3 0
-8 -4 -11 -10z"/>
<path d="M2745 3919 c-4 -6 -5 -12 -2 -15 2 -3 7 2 10 11 7 17 1 20 -8 4z"/>
<path d="M2984 3920 c2 -16 20 -14 24 2 3 10 2 10 -6 -1 -7 -9 -11 -10 -15 -2
-4 7 -5 8 -3 1z"/>
<path d="M3064 3918 c10 -6 22 -6 26 -2 5 5 -3 10 -18 11 -22 1 -24 0 -8 -9z"/>
<path d="M2055 3910 c-3 -6 2 -13 12 -17 10 -3 22 -8 27 -11 5 -3 6 0 2 6 -4
7 -14 12 -22 12 -8 0 -12 5 -9 10 3 6 4 10 1 10 -3 0 -8 -5 -11 -10z"/>
<path d="M2931 3913 c4 -22 -2 -34 -13 -27 -7 4 -10 4 -6 -1 4 -4 4 -13 -2
-19 -6 -8 -3 -12 9 -12 12 0 17 5 13 15 -3 9 -1 12 6 7 8 -5 10 -2 6 8 -4 11
0 14 16 11 13 -2 19 -1 16 3 -4 4 -11 7 -14 7 -4 0 -13 4 -20 8 -7 5 -12 5
-11 0z"/>
<path d="M3157 3913 c-10 -9 -9 -23 1 -23 5 0 9 7 9 15 0 17 -1 18 -10 8z"/>
<path d="M1550 3906 c0 -2 7 -7 16 -10 8 -3 12 -2 9 4 -6 10 -25 14 -25 6z"/>
<path d="M1633 3903 c4 -3 1 -13 -6 -22 -11 -14 -10 -14 5 -2 16 12 16 31 1
31 -4 0 -3 -3 0 -7z"/>
<path d="M1840 3895 c-7 -9 -8 -15 -2 -15 5 0 12 7 16 15 3 8 4 15 2 15 -2 0
-9 -7 -16 -15z"/>
<path d="M1944 3896 c11 -9 24 -16 30 -16 12 0 7 5 -24 19 -24 11 -24 11 -6
-3z"/>
<path d="M1990 3901 c0 -6 4 -13 10 -16 6 -3 7 1 4 9 -7 18 -14 21 -14 7z"/>
<path d="M2139 3908 c0 -2 -2 -14 -5 -28 -3 -18 -2 -21 5 -10 5 8 7 18 4 24
-4 5 1 7 11 3 10 -4 15 -3 11 3 -5 9 -24 14 -26 8z"/>
<path d="M2190 3900 c-13 -8 -12 -10 3 -10 9 0 17 5 17 10 0 12 -1 12 -20 0z"/>
<path d="M2315 3901 c-3 -5 -2 -12 3 -15 5 -3 9 1 9 9 0 17 -3 19 -12 6z"/>
<path d="M2350 3903 c7 -3 8 -9 1 -17 -8 -9 -7 -13 3 -13 17 0 14 30 -3 33 -7
2 -7 0 -1 -3z"/>
<path d="M2470 3900 c0 -5 5 -10 10 -10 6 0 10 5 10 10 0 6 -4 10 -10 10 -5 0
-10 -4 -10 -10z"/>
<path d="M2670 3900 c0 -5 5 -10 10 -10 6 0 10 5 10 10 0 6 -4 10 -10 10 -5 0
-10 -4 -10 -10z"/>
<path d="M2837 3895 c-4 -8 -3 -16 1 -19 4 -3 9 4 9 15 2 23 -3 25 -10 4z"/>
<path d="M3190 3906 c0 -2 7 -7 16 -10 8 -3 12 -2 9 4 -6 10 -25 14 -25 6z"/>
<path d="M2111 3884 c0 -11 3 -14 6 -6 3 7 2 16 -1 19 -3 4 -6 -2 -5 -13z"/>
<path d="M2220 3893 c0 -6 5 -15 10 -18 6 -4 8 -10 5 -15 -3 -5 -1 -11 4 -14
12 -8 8 14 -7 39 -6 11 -12 15 -12 8z"/>
<path d="M1440 3875 c-7 -9 -11 -17 -9 -20 3 -2 10 5 17 15 14 24 10 26 -8 5z"/>
<path d="M1536 3882 c-3 -5 1 -9 9 -9 8 0 12 4 9 9 -3 4 -7 8 -9 8 -2 0 -6 -4
-9 -8z"/>
<path d="M1720 3875 c-11 -13 -10 -14 4 -9 9 3 16 10 16 15 0 13 -6 11 -20 -6z"/>
<path d="M1763 3878 c-10 -17 -12 -57 -3 -63 4 -2 6 8 5 23 -1 15 2 33 8 40 5
6 7 12 4 12 -3 0 -9 -6 -14 -12z"/>
<path d="M1882 3878 c-15 -15 -15 -28 0 -28 6 0 8 3 5 7 -4 3 -2 12 4 20 14
16 7 17 -9 1z"/>
<path d="M2030 3880 c-13 -8 -12 -10 3 -10 9 0 17 5 17 10 0 12 -1 12 -20 0z"/>
<path d="M2433 3877 c0 -7 9 -13 19 -13 10 0 18 1 18 3 0 1 -8 7 -18 12 -13 7
-19 6 -19 -2z"/>
<path d="M2615 3880 c-3 -5 0 -12 6 -16 8 -4 9 -3 5 4 -11 18 5 14 18 -4 10
-14 12 -13 12 3 0 19 -31 29 -41 13z"/>
<path d="M2706 3878 c3 -5 10 -6 15 -3 13 9 11 12 -6 12 -8 0 -12 -4 -9 -9z"/>
<path d="M2746 3878 c3 -5 10 -6 15 -3 13 9 11 12 -6 12 -8 0 -12 -4 -9 -9z"/>
<path d="M2864 3870 c0 -13 4 -16 10 -10 7 7 7 13 0 20 -6 6 -10 3 -10 -10z"/>
<path d="M2987 3871 c-4 -17 -3 -21 5 -13 5 5 8 16 6 23 -3 8 -7 3 -11 -10z"/>
<path d="M3040 3869 c13 -23 22 -25 13 -2 -5 12 -3 14 8 8 8 -5 11 -4 6 0 -4
5 -14 10 -22 11 -12 2 -12 -2 -5 -17z"/>
<path d="M3094 3878 c-5 -7 -2 -8 6 -3 9 6 12 4 8 -6 -4 -10 1 -15 16 -16 11
0 15 1 8 4 -6 3 -10 8 -7 13 3 4 -2 10 -10 14 -8 3 -17 0 -21 -6z"/>
<path d="M3176 3882 c-3 -4 4 -9 15 -9 23 -2 25 3 4 10 -8 4 -16 3 -19 -1z"/>
<path d="M3256 3882 c-3 -5 1 -9 9 -9 8 0 12 4 9 9 -3 4 -7 8 -9 8 -2 0 -6 -4
-9 -8z"/>
<path d="M3301 3881 c-10 -7 -7 -9 12 -8 14 1 23 5 20 10 -6 9 -15 9 -32 -2z"/>
<path d="M1670 3870 c8 -5 20 -10 25 -10 6 0 3 5 -5 10 -8 5 -19 10 -25 10 -5
0 -3 -5 5 -10z"/>
<path d="M2670 3871 c0 -5 7 -12 16 -15 14 -5 15 -4 4 9 -14 17 -20 19 -20 6z"/>
<path d="M3394 3871 c4 -5 0 -11 -6 -14 -7 -3 -3 -4 9 -4 17 1 19 4 11 14 -12
15 -22 18 -14 4z"/>
<path d="M1355 3860 c-3 -5 -1 -10 4 -10 6 0 11 5 11 10 0 6 -2 10 -4 10 -3 0
-8 -4 -11 -10z"/>
<path d="M1993 3852 c0 -10 7 -19 14 -19 9 0 10 4 3 12 -5 7 -7 15 -3 18 3 4
1 7 -5 7 -6 0 -10 -8 -9 -18z"/>
<path d="M2093 3855 c0 -8 4 -12 9 -9 5 3 6 10 3 15 -9 13 -12 11 -12 -6z"/>
<path d="M2152 3860 c2 -9 -3 -14 -12 -12 -8 2 -11 0 -7 -4 13 -14 35 -12 33
2 -1 7 -6 17 -10 21 -4 4 -6 1 -4 -7z"/>
<path d="M2390 3858 c0 -4 4 -8 9 -8 6 0 12 4 15 8 3 5 -1 9 -9 9 -8 0 -15 -4
-15 -9z"/>
<path d="M1459 3858 c-6 -22 -5 -39 3 -45 6 -3 8 -1 4 5 -3 5 0 13 6 15 10 4
10 6 0 6 -7 1 -10 6 -7 11 3 6 4 10 1 10 -3 0 -6 -1 -7 -2z"/>
<path d="M1523 3840 c-9 -14 -10 -21 -1 -26 7 -5 8 -3 3 6 -6 10 -4 12 7 7 12
-4 14 -1 11 14 -6 23 -6 23 -20 -1z"/>
<path d="M1617 3841 c-4 -17 -3 -21 5 -13 5 5 8 16 6 23 -3 8 -7 3 -11 -10z"/>
<path d="M2595 3849 c-4 -6 -5 -12 -2 -15 2 -3 7 2 10 11 7 17 1 20 -8 4z"/>
<path d="M2793 3846 c0 -15 22 -15 34 0 4 5 4 6 -1 2 -5 -4 -14 -3 -21 2 -8 7
-12 5 -12 -4z"/>
<path d="M3153 3847 c0 -8 6 -14 14 -14 9 0 10 4 2 14 -6 7 -12 13 -14 13 -1
0 -2 -6 -2 -13z"/>
<path d="M3188 3853 c6 -2 18 -2 25 0 6 3 1 5 -13 5 -14 0 -19 -2 -12 -5z"/>
<path d="M3233 3845 c0 -8 4 -15 9 -15 4 0 8 4 8 9 0 6 -4 12 -8 15 -5 3 -9
-1 -9 -9z"/>
<path d="M3268 3853 c6 -2 18 -2 25 0 6 3 1 5 -13 5 -14 0 -19 -2 -12 -5z"/>
<path d="M3348 3853 c7 -3 16 -2 19 1 4 3 -2 6 -13 5 -11 0 -14 -3 -6 -6z"/>
<path d="M3437 3850 c7 -8 20 -15 29 -16 9 -1 13 1 9 4 -4 4 -10 7 -13 7 -4 0
-14 4 -22 9 -12 7 -13 6 -3 -4z"/>
<path d="M1323 3838 c-14 -20 -10 -61 7 -65 9 -3 11 -1 5 4 -12 9 -13 43 -2
61 5 6 6 12 4 12 -3 0 -9 -6 -14 -12z"/>
<path d="M1394 3835 c3 -23 12 -26 13 -5 1 11 -2 20 -7 20 -4 0 -7 -7 -6 -15z"/>
<path d="M1691 3833 c0 -12 2 -13 6 -5 4 10 10 9 27 -5 l21 -18 -19 23 c-23
26 -36 28 -35 5z"/>
<path d="M1915 3839 c-3 -4 2 -6 10 -5 21 3 28 13 10 13 -9 0 -18 -4 -20 -8z"/>
<path d="M2560 3835 c-7 -9 -11 -17 -9 -20 3 -2 10 5 17 15 14 24 10 26 -8 5z"/>
<path d="M3000 3840 c-8 -5 0 -7 18 -7 17 1 29 4 26 6 -8 9 -31 9 -44 1z"/>
<path d="M3535 3840 c-3 -5 -1 -10 4 -10 6 0 11 5 11 10 0 6 -2 10 -4 10 -3 0
-8 -4 -11 -10z"/>
<path d="M1270 3818 c0 -4 4 -8 9 -8 6 0 12 4 15 8 3 5 -1 9 -9 9 -8 0 -15 -4
-15 -9z"/>
<path d="M1856 3818 c3 -4 11 -5 19 -1 21 7 19 12 -4 10 -11 0 -18 -5 -15 -9z"/>
<path d="M2615 3820 c-3 -5 -1 -10 4 -10 6 0 11 5 11 10 0 6 -2 10 -4 10 -3 0
-8 -4 -11 -10z"/>
<path d="M3266 3817 c3 -10 9 -15 12 -12 3 3 0 11 -7 18 -10 9 -11 8 -5 -6z"/>
<path d="M3365 3822 c-5 -4 -17 -16 -25 -27 -14 -19 -14 -19 3 -6 12 10 20 11
30 2 10 -8 14 -7 14 4 0 8 -5 11 -10 8 -6 -4 -8 0 -4 10 7 19 6 20 -8 9z"/>
<path d="M1989 3803 c-13 -16 -12 -17 4 -4 9 7 17 15 17 17 0 8 -8 3 -21 -13z"/>
<path d="M3566 3805 c-11 -8 -15 -15 -9 -15 6 0 16 7 23 15 16 19 11 19 -14 0z"/>
<path d="M1155 3800 c-3 -5 -1 -10 4 -10 6 0 11 5 11 10 0 6 -2 10 -4 10 -3 0
-8 -4 -11 -10z"/>
<path d="M1430 3800 c0 -5 5 -10 10 -10 6 0 10 5 10 10 0 6 -4 10 -10 10 -5 0
-10 -4 -10 -10z"/>
<path d="M1479 3793 c-12 -16 -12 -17 2 -6 9 7 19 10 22 6 4 -3 7 -1 7 5 0 17
-16 15 -31 -5z"/>
<path d="M1553 3790 c1 -21 10 -18 13 5 1 8 -2 15 -6 15 -5 0 -8 -9 -7 -20z"/>
<path d="M1707 3799 c7 -7 15 -10 18 -7 3 3 -2 9 -12 12 -14 6 -15 5 -6 -5z"/>
<path d="M3680 3806 c0 -2 8 -10 18 -17 15 -13 16 -12 3 4 -13 16 -21 21 -21
13z"/>
<path d="M3754 3798 c-4 -7 -4 -10 1 -6 4 4 15 2 24 -5 14 -11 14 -10 2 6 -16
20 -18 21 -27 5z"/>
<path d="M1040 3775 c-11 -13 -11 -18 0 -28 10 -10 12 -9 7 4 -3 9 0 22 6 28
6 6 8 11 5 11 -3 0 -11 -7 -18 -15z"/>
<path d="M1360 3780 c-9 -6 -10 -10 -3 -10 6 0 15 5 18 10 8 12 4 12 -15 0z"/>
<path d="M1390 3786 c0 -2 7 -7 16 -10 8 -3 12 -2 9 4 -6 10 -25 14 -25 6z"/>
<path d="M1636 3778 c3 -4 11 -5 19 -1 21 7 19 12 -4 10 -11 0 -18 -5 -15 -9z"/>
<path d="M3172 3785 c3 -3 16 -8 28 -10 12 -2 20 -1 16 2 -4 4 -16 8 -28 10
-12 2 -19 1 -16 -2z"/>
<path d="M3510 3782 c0 -5 7 -9 15 -9 8 0 12 4 9 9 -3 4 -9 8 -15 8 -5 0 -9
-4 -9 -8z"/>
<path d="M3585 3779 c-3 -4 2 -6 10 -5 21 3 28 13 10 13 -9 0 -18 -4 -20 -8z"/>
<path d="M3660 3786 c0 -2 8 -10 18 -17 15 -13 16 -12 3 4 -13 16 -21 21 -21
13z"/>
<path d="M986 3767 c3 -10 9 -15 12 -12 3 3 0 11 -7 18 -10 9 -11 8 -5 -6z"/>
<path d="M1077 3763 c3 -7 9 -13 13 -13 4 0 10 6 13 13 3 7 -3 13 -13 13 -10
0 -16 -6 -13 -13z"/>
<path d="M1130 3771 c0 -10 19 -25 25 -20 1 2 -3 10 -11 17 -8 7 -14 8 -14 3z"/>
<path d="M1190 3765 c14 -8 30 -14 35 -14 6 0 -1 6 -15 14 -14 8 -29 14 -35
14 -5 0 1 -6 15 -14z"/>
<path d="M1456 3767 c3 -10 9 -15 12 -12 3 3 0 11 -7 18 -10 9 -11 8 -5 -6z"/>
<path d="M3738 3770 c13 -15 65 -23 57 -9 -3 4 -13 6 -23 4 -9 -1 -24 2 -32 8
-12 9 -13 9 -2 -3z"/>
<path d="M3635 3760 c3 -5 8 -10 11 -10 2 0 4 5 4 10 0 6 -5 10 -11 10 -5 0
-7 -4 -4 -10z"/>
<path d="M1495 3751 c-3 -5 -2 -12 3 -15 5 -3 9 1 9 9 0 17 -3 19 -12 6z"/>
<path d="M3535 3751 c-3 -5 -2 -12 3 -15 5 -3 9 1 9 9 0 17 -3 19 -12 6z"/>
<path d="M3573 3745 c0 -8 4 -12 9 -9 5 3 6 10 3 15 -9 13 -12 11 -12 -6z"/>
<path d="M3877 3753 c-10 -9 -9 -23 1 -23 5 0 9 7 9 15 0 17 -1 18 -10 8z"/>
<path d="M1003 3742 c-8 -5 -8 -12 2 -25 11 -16 13 -16 19 -2 4 11 2 14 -6 9
-8 -5 -9 -2 -5 9 7 19 7 20 -10 9z"/>
<path d="M1113 3735 c0 -8 4 -12 9 -9 4 3 8 9 8 15 0 5 -4 9 -8 9 -5 0 -9 -7
-9 -15z"/>
<path d="M1295 3731 c-3 -5 -2 -12 3 -15 5 -3 9 1 9 9 0 17 -3 19 -12 6z"/>
<path d="M3773 3725 c0 -8 3 -13 5 -10 3 3 12 -1 21 -7 10 -8 9 -4 -3 10 -23
26 -23 26 -23 7z"/>
<path d="M1074 3715 c1 -8 6 -18 11 -22 4 -4 5 -3 2 4 -4 6 -2 13 5 15 8 3 6
6 -4 10 -10 4 -15 2 -14 -7z"/>
<path d="M1235 3720 c-3 -5 -1 -10 4 -10 6 0 11 5 11 10 0 6 -2 10 -4 10 -3 0
-8 -4 -11 -10z"/>
<path d="M3838 3712 c3 -10 1 -13 -6 -8 -8 5 -10 1 -5 -10 4 -11 8 -13 11 -6
2 7 8 10 12 7 5 -3 12 0 16 6 5 8 3 9 -6 4 -9 -6 -12 -4 -8 7 4 8 1 15 -7 15
-8 0 -11 -7 -7 -15z"/>
<path d="M3906 3722 c5 -4 12 -11 15 -15 3 -5 9 -2 12 5 3 9 -3 14 -15 15 -11
1 -16 -1 -12 -5z"/>
<path d="M4002 3717 c10 -8 14 -18 10 -22 -4 -5 -1 -5 6 -1 17 10 15 14 -10
26 -21 10 -21 10 -6 -3z"/>
<path d="M1135 3710 c-3 -6 1 -7 9 -4 18 7 21 14 7 14 -6 0 -13 -4 -16 -10z"/>
<path d="M3881 3713 c-1 -17 16 -25 25 -12 4 7 3 9 -4 5 -5 -3 -13 0 -15 6 -4
9 -6 10 -6 1z"/>
<path d="M3950 3710 c0 -5 5 -10 11 -10 5 0 7 5 4 10 -3 6 -8 10 -11 10 -2 0
-4 -4 -4 -10z"/>
<path d="M1030 3700 c0 -5 7 -7 15 -4 8 4 15 8 15 10 0 2 -7 4 -15 4 -8 0 -15
-4 -15 -10z"/>
<path d="M1159 3693 c-13 -16 -12 -17 4 -4 9 7 17 15 17 17 0 8 -8 3 -21 -13z"/>
<path d="M4076 3698 c3 -4 0 -8 -5 -8 -17 0 -13 -17 5 -24 9 -3 12 -2 9 5 -4
5 -2 16 4 23 8 9 7 13 -4 13 -8 0 -12 -4 -9 -9z"/>
<path d="M3755 3691 c-3 -5 -2 -12 3 -15 5 -3 9 1 9 9 0 17 -3 19 -12 6z"/>
<path d="M4033 3688 c-15 -20 -25 -38 -20 -38 3 0 12 11 21 25 17 26 16 35 -1
13z"/>
<path d="M1053 3675 c0 -8 4 -12 9 -9 4 3 8 9 8 15 0 5 -4 9 -8 9 -5 0 -9 -7
-9 -15z"/>
<path d="M1113 3675 c0 -8 4 -12 9 -9 4 3 8 9 8 15 0 5 -4 9 -8 9 -5 0 -9 -7
-9 -15z"/>
<path d="M1230 3679 c0 -5 5 -7 10 -4 6 3 10 8 10 11 0 2 -4 4 -10 4 -5 0 -10
-5 -10 -11z"/>
<path d="M3916 3678 c3 -4 0 -8 -7 -8 -7 0 -10 -3 -6 -6 3 -3 16 1 28 9 22 16
22 16 1 14 -11 0 -18 -5 -16 -9z"/>
<path d="M3980 3680 c8 -5 20 -10 25 -10 6 0 3 5 -5 10 -8 5 -19 10 -25 10 -5
0 -3 -5 5 -10z"/>
<path d="M4115 3671 c-3 -5 0 -13 6 -17 8 -5 9 -3 4 6 -6 10 -4 12 9 7 10 -4
15 -3 11 3 -8 13 -22 13 -30 1z"/>
<path d="M4597 3668 c6 -7 13 -20 16 -28 4 -10 6 -8 6 6 1 12 -6 25 -15 28
-13 5 -14 3 -7 -6z"/>
<path d="M3951 3648 c11 -21 20 -24 17 -5 -2 6 4 11 12 9 8 -2 12 0 7 4 -4 4
-16 8 -27 9 -15 1 -17 -2 -9 -17z"/>
<path d="M4028 3648 c-10 -10 -14 -18 -9 -18 10 0 36 29 30 34 -2 1 -12 -6
-21 -16z"/>
<path d="M3660 3649 c0 -4 -13 -12 -30 -19 -16 -7 -28 -15 -25 -19 2 -4 -5
-22 -15 -39 -14 -23 -16 -33 -7 -38 7 -4 9 -4 5 1 -4 4 -3 14 3 22 18 20 42
-18 33 -52 -5 -22 -11 -25 -30 -21 -28 7 -28 7 -10 -30 8 -15 13 -31 11 -35
-3 -4 2 -12 10 -19 13 -11 14 -10 9 4 -3 9 -1 16 5 16 6 0 12 -7 12 -15 3 -28
4 -33 11 -40 4 -4 5 5 2 21 l-5 29 16 -22 c9 -13 22 -23 28 -23 9 0 9 2 0 8
-8 5 6 17 41 34 44 22 54 32 58 57 2 16 -1 43 -7 58 -8 19 -9 34 -2 47 7 14 6
22 -5 30 -8 6 -20 21 -27 34 -9 18 -19 22 -47 20 -18 -1 -34 -5 -34 -9z m110
-59 c0 -5 -7 -7 -15 -4 -8 4 -15 8 -15 10 0 2 7 4 15 4 8 0 15 -4 15 -10z
m-74 -51 c14 -16 15 -23 7 -26 -20 -7 -15 -31 7 -38 25 -8 16 -25 -13 -25 -18
0 -19 2 -7 10 13 8 12 10 -3 10 -18 0 -36 34 -31 60 1 8 3 18 3 23 2 13 18 7
37 -14z m58 -26 c-6 -22 -34 -41 -34 -23 0 6 5 10 12 10 6 0 8 3 5 7 -4 3 -2
12 5 20 14 18 19 12 12 -14z"/>
<path d="M4171 3653 c-2 -20 16 -24 30 -5 13 15 12 16 -3 4 -13 -10 -17 -10
-21 0 -4 9 -6 9 -6 1z"/>
<path d="M1075 3640 c-3 -5 -1 -10 4 -10 6 0 11 5 11 10 0 6 -2 10 -4 10 -3 0
-8 -4 -11 -10z"/>
<path d="M2437 3603 c-9 -33 -11 -54 -4 -67 7 -15 6 -18 -5 -14 -9 4 -14 -2
-16 -17 -1 -18 4 -22 33 -23 25 -1 35 3 35 13 0 8 5 15 10 15 6 0 10 7 10 15
0 9 9 35 20 57 11 23 18 44 15 46 -3 3 -5 0 -5 -6 0 -7 -10 -12 -21 -12 -17 0
-19 3 -10 13 14 17 4 27 -25 27 -19 0 -25 -9 -37 -47z"/>
<path d="M3807 3639 c7 -7 15 -10 18 -7 3 3 -2 9 -12 12 -14 6 -15 5 -6 -5z"/>
<path d="M3930 3641 c0 -6 4 -13 10 -16 6 -3 7 1 4 9 -7 18 -14 21 -14 7z"/>
<path d="M4055 3641 c-3 -5 0 -13 6 -17 7 -4 9 -3 5 4 -3 5 0 13 6 15 9 4 10
6 1 6 -6 1 -14 -3 -18 -8z"/>
<path d="M4090 3640 c0 -5 5 -10 10 -10 6 0 10 5 10 10 0 6 -4 10 -10 10 -5 0
-10 -4 -10 -10z"/>
<path d="M4534 3628 c-10 -16 2 -18 21 -5 16 12 16 14 1 14 -9 0 -19 -4 -22
-9z"/>
<path d="M4665 3630 c3 -6 0 -10 -8 -10 -8 0 -20 -7 -28 -16 -12 -14 -14 -14
-26 2 -12 17 -13 16 -13 -3 0 -17 -5 -21 -24 -17 -17 3 -25 -1 -29 -15 -3 -12
1 -22 9 -25 8 -3 14 -1 14 3 0 15 34 6 38 -10 3 -11 1 -11 -7 1 -6 8 -11 10
-11 4 0 -6 7 -17 15 -24 12 -10 19 -7 39 14 17 20 31 25 50 22 30 -5 40 6 30
36 l-6 21 -13 -22 c-10 -19 -13 -21 -18 -7 -3 8 -2 18 3 21 15 9 12 22 -6 29
-8 3 -12 2 -9 -4z"/>
<path d="M3875 3609 c-4 -6 -5 -12 -2 -15 2 -3 7 2 10 11 7 17 1 20 -8 4z"/>
<path d="M4140 3609 c0 -5 -4 -8 -9 -4 -5 3 -13 0 -17 -7 -4 -7 -4 -10 1 -6 4
4 13 4 19 -2 8 -6 12 -3 13 11 1 10 0 19 -3 19 -2 0 -4 -5 -4 -11z"/>
<path d="M4030 3599 c0 -5 5 -7 10 -4 6 3 10 8 10 11 0 2 -4 4 -10 4 -5 0 -10
-5 -10 -11z"/>
<path d="M2151 3565 c-19 -13 -39 -21 -44 -18 -6 3 -7 1 -3 -5 4 -7 2 -12 -3
-12 -6 0 -11 -6 -11 -13 0 -7 -12 -14 -26 -15 -15 -1 -40 -15 -57 -32 -17 -16
-34 -30 -39 -30 -13 0 -9 -27 5 -39 10 -8 19 -5 38 12 13 12 24 22 24 22 7 0
32 -32 29 -37 -3 -4 6 -12 18 -18 21 -10 22 -10 5 3 -25 21 -1 27 35 9 29 -14
39 -25 14 -16 -8 3 -24 -4 -35 -15 -20 -20 -20 -23 -5 -52 8 -17 13 -37 10
-44 -3 -9 0 -12 8 -9 12 5 15 -1 19 -50 1 -13 4 -23 7 -21 18 11 39 -30 42
-83 1 -6 4 -10 6 -7 8 7 33 -16 27 -25 -3 -5 4 -6 15 -3 12 3 20 0 20 -6 0 -7
-4 -10 -8 -7 -4 2 -8 -4 -8 -14 0 -16 4 -15 26 7 14 14 41 36 60 48 19 12 41
30 49 39 7 8 18 13 24 9 5 -3 7 -1 4 4 -4 6 3 19 14 29 12 11 34 38 50 61 24
34 26 42 13 47 -19 7 -62 -3 -91 -21 -12 -8 -28 -11 -34 -7 -7 4 -9 3 -6 -2 3
-5 -10 -14 -29 -20 -27 -9 -34 -8 -35 2 -3 28 -4 32 -12 40 -4 4 1 17 10 28
17 20 17 20 -1 6 -18 -13 -19 -13 -14 1 4 9 1 22 -5 29 -9 10 -9 11 2 5 10 -6
10 -2 -2 16 -8 13 -14 34 -12 47 1 12 -2 22 -7 22 -4 0 -7 3 -7 8 1 4 0 9 -1
12 -1 3 -3 14 -5 25 -16 109 -27 123 -74 90z m-49 -108 l21 18 -18 -30 c-11
-16 -21 -32 -23 -35 -6 -8 -22 24 -22 45 1 19 1 19 11 2 10 -18 11 -18 31 0z
m268 -304 c0 -17 -17 -17 -17 0 0 6 -4 21 -8 32 -7 20 -6 20 9 1 9 -11 16 -26
16 -33z"/>
<path d="M4487 3570 c3 -11 9 -17 15 -14 5 3 4 12 -3 20 -16 19 -18 18 -12 -6z"/>
<path d="M2317 3563 c-15 -4 -17 -13 -13 -56 10 -99 16 -110 54 -96 30 10 29
4 19 129 -2 26 -22 33 -60 23z"/>
<path d="M4386 3562 c-3 -5 1 -9 9 -9 8 0 15 4 15 9 0 4 -4 8 -9 8 -6 0 -12
-4 -15 -8z"/>
<path d="M4215 3540 c-3 -5 -1 -10 4 -10 6 0 11 5 11 10 0 6 -2 10 -4 10 -3 0
-8 -4 -11 -10z"/>
<path d="M4347 3539 c7 -7 15 -10 18 -7 3 3 -2 9 -12 12 -14 6 -15 5 -6 -5z"/>
<path d="M4708 3538 c-3 -7 -18 -12 -34 -10 -16 1 -24 -2 -17 -6 19 -12 20
-46 1 -50 -13 -2 -16 1 -12 12 3 9 2 16 -4 16 -17 0 -20 -24 -5 -38 18 -19 48
-11 49 13 3 38 4 39 14 29 7 -7 7 -19 1 -36 -7 -20 -5 -30 13 -53 18 -23 24
-25 29 -12 3 9 -1 18 -10 21 -8 4 -13 13 -10 20 3 8 1 17 -6 20 -9 3 -8 5 1 5
7 1 11 5 8 10 -4 5 2 7 13 4 10 -3 22 0 26 7 5 8 11 7 23 -2 10 -8 13 -9 9 -1
-4 7 0 13 10 16 12 3 8 5 -9 6 -15 0 -30 -3 -33 -9 -10 -16 -28 -11 -21 6 6
16 -9 44 -24 44 -5 0 -10 -6 -12 -12z"/>
<path d="M4770 3541 c0 -6 4 -13 10 -16 6 -3 7 1 4 9 -7 18 -14 21 -14 7z"/>
<path d="M4795 3540 c3 -5 8 -10 11 -10 2 0 4 5 4 10 0 6 -5 10 -11 10 -5 0
-7 -4 -4 -10z"/>
<path d="M3600 3525 c-11 -13 -11 -18 0 -28 10 -9 11 -9 6 1 -4 7 -2 19 4 27
7 8 10 15 7 15 -2 0 -10 -7 -17 -15z"/>
<path d="M4396 3527 c3 -10 9 -15 12 -12 3 3 0 11 -7 18 -10 9 -11 8 -5 -6z"/>
<path d="M3495 3512 c-3 -9 -9 -39 -12 -67 -7 -67 -16 -82 -52 -83 -41 -1 -51
-9 -51 -37 0 -18 5 -23 25 -21 14 0 25 4 25 8 0 4 10 4 22 -1 19 -7 35 -51 18
-51 -4 0 -5 -13 -2 -30 4 -25 1 -30 -24 -35 -16 -4 -36 -9 -44 -12 -53 -20
-75 -1 -36 32 41 35 31 56 -26 49 -20 -2 -28 2 -28 12 0 8 4 13 8 10 4 -2 6
11 4 31 -3 22 -1 33 5 30 6 -4 8 4 5 20 -3 14 -1 23 4 20 5 -3 9 14 9 36 l-1
42 -69 -1 c-68 -1 -152 -11 -167 -20 -17 -11 6 -35 31 -32 37 3 48 -6 46 -44
-2 -18 -3 -49 -5 -68 -1 -19 -2 -61 -1 -93 l1 -58 33 4 c17 2 45 9 60 15 16 7
33 9 39 6 6 -4 8 -2 4 4 -3 6 -2 13 3 16 5 3 12 -2 16 -11 4 -12 -1 -24 -15
-35 -17 -14 -19 -21 -10 -38 6 -11 8 -25 5 -30 -3 -6 1 -10 9 -10 22 0 29 -19
14 -38 -12 -15 -11 -16 4 -4 14 12 23 10 62 -13 33 -19 52 -24 68 -19 13 4 28
7 33 5 6 -1 7 1 3 5 -4 4 -2 14 5 22 6 9 7 13 2 10 -6 -4 -17 3 -24 15 -8 12
-10 19 -6 15 5 -4 15 -2 24 5 14 10 14 10 4 -4 -10 -13 -10 -16 1 -16 15 0 16
14 2 36 -7 10 -1 21 20 38 26 20 38 25 60 22 3 0 11 7 18 17 7 9 17 15 22 11
5 -3 9 7 9 22 1 26 0 27 -55 20 -30 -3 -56 -5 -58 -4 -8 7 -11 56 -3 51 5 -3
7 3 4 15 -7 26 16 42 36 26 12 -9 13 -9 7 1 -4 7 -1 12 8 12 10 0 13 -6 9 -16
-5 -12 0 -15 23 -12 21 2 30 9 32 26 2 12 8 20 13 17 5 -4 9 -2 9 3 0 12 -47
26 -74 23 -10 -2 -23 3 -27 11 -7 10 -9 10 -9 0 0 -7 -4 -10 -10 -7 -13 8 -13
65 1 65 5 0 7 5 3 11 -4 7 -7 28 -8 47 -1 28 -5 36 -23 38 -13 2 -24 -3 -28
-14z m-65 -172 c0 -5 -2 -10 -4 -10 -3 0 -8 5 -11 10 -3 6 -1 10 4 10 6 0 11
-4 11 -10z m63 -234 c5 -12 -2 -14 -31 -7 -2 1 0 6 3 11 9 14 22 12 28 -4z
m-28 -25 c3 -5 2 -12 -3 -15 -5 -3 -9 1 -9 9 0 17 3 19 12 6z"/>
<path d="M4353 3495 c0 -8 4 -12 9 -9 5 3 6 10 3 15 -9 13 -12 11 -12 -6z"/>
<path d="M1355 3469 c-4 -6 -5 -12 -2 -15 2 -3 7 2 10 11 7 17 1 20 -8 4z"/>
<path d="M1415 3460 c-3 -5 -1 -10 4 -10 6 0 11 5 11 10 0 6 -2 10 -4 10 -3 0
-8 -4 -11 -10z"/>
<path d="M3936 3453 c-15 -15 -4 -39 25 -52 26 -11 30 -18 26 -40 -8 -39 -97
-221 -108 -221 -6 0 -7 -4 -4 -10 3 -5 2 -10 -3 -10 -15 0 -42 -64 -31 -71 6
-3 11 -10 11 -15 -1 -5 6 -8 14 -6 8 2 14 -3 14 -10 0 -10 2 -10 9 0 4 8 11
13 15 13 3 -1 7 -1 9 0 1 0 18 3 37 5 19 2 48 6 63 10 23 5 29 3 34 -15 3 -11
9 -21 14 -21 4 0 13 -10 20 -21 9 -17 8 -24 -2 -31 -11 -8 -10 -9 3 -4 19 6
34 -9 18 -19 -5 -3 -10 -12 -10 -18 0 -7 5 -4 10 5 6 9 24 19 40 23 17 4 28
10 26 14 -2 3 16 28 40 55 44 49 53 66 34 66 -5 0 -10 7 -10 15 0 13 -4 14
-22 4 -13 -6 -31 -20 -41 -30 -22 -23 -41 -25 -33 -3 3 8 2 12 -3 9 -9 -5 -27
32 -23 48 1 5 -2 6 -8 2 -5 -3 -10 -2 -10 2 0 5 -13 8 -30 7 -16 -1 -27 2 -24
7 3 5 0 9 -6 9 -6 0 -4 7 5 17 9 9 35 40 57 70 22 29 45 53 50 53 6 0 8 12 5
29 -5 23 -2 30 11 33 10 2 -26 25 -85 54 -97 47 -108 49 -104 15 2 -7 -3 -10
-9 -6 -6 4 -9 13 -6 21 6 15 -7 27 -18 17z m44 -245 c0 -17 -3 -19 -9 -9 -5 7
-13 11 -19 7 -6 -3 -13 -2 -16 3 -5 8 8 15 37 20 4 0 7 -9 7 -21z m37 -113
c-10 -7 -26 -12 -35 -10 -9 2 -19 4 -22 4 -14 3 22 16 46 18 26 1 27 0 11 -12z"/>
<path d="M1295 3440 c-3 -5 -1 -10 4 -10 6 0 11 5 11 10 0 6 -2 10 -4 10 -3 0
-8 -4 -11 -10z"/>
<path d="M1376 3433 c-6 -14 -5 -15 5 -6 7 7 10 15 7 18 -3 3 -9 -2 -12 -12z"/>
<path d="M1710 3440 c0 -5 5 -10 11 -10 5 0 7 5 4 10 -3 6 -8 10 -11 10 -2 0
-4 -4 -4 -10z"/>
<path d="M4647 3434 c-3 -3 -3 -13 0 -23 5 -21 48 -23 48 -2 0 14 -39 34 -48
25z"/>
<path d="M1457 3419 c7 -7 15 -10 18 -7 3 3 -2 9 -12 12 -14 6 -15 5 -6 -5z"/>
<path d="M1395 3411 c-3 -5 0 -13 6 -17 7 -4 9 -3 5 4 -3 5 0 13 6 15 9 4 10
6 1 6 -6 1 -14 -3 -18 -8z"/>
<path d="M1637 3399 c4 -13 8 -18 11 -10 2 7 -1 18 -6 23 -8 8 -9 4 -5 -13z"/>
<path d="M1290 3396 c4 -4 16 -4 26 2 16 9 14 10 -8 9 -15 -1 -23 -6 -18 -11z"/>
<path d="M1427 3403 c-3 -5 6 -9 20 -10 19 -1 22 1 12 8 -17 11 -26 11 -32 2z"/>
<path d="M4764 3389 c-11 -10 -30 -21 -43 -24 -12 -2 -31 -7 -42 -10 -11 -4
-26 -2 -34 5 -9 7 -15 8 -20 0 -3 -5 -5 -10 -3 -11 2 0 12 -2 22 -4 10 -2 22
-9 26 -15 4 -7 11 -12 16 -12 5 1 8 -6 6 -14 -4 -18 13 -18 31 1 8 8 18 11 22
7 5 -4 5 -1 1 6 -4 7 -11 10 -16 7 -5 -3 -11 -1 -15 5 -3 6 1 13 10 17 10 3
21 0 26 -8 6 -10 9 -11 10 -1 1 6 2 17 3 23 0 6 9 17 19 24 10 7 14 16 9 19
-5 3 -17 -4 -28 -15z"/>
<path d="M1199 3395 c-1 -3 -2 -10 -3 -15 0 -6 -8 -15 -16 -20 -9 -6 -10 -10
-3 -10 13 0 26 17 29 38 2 11 -5 18 -7 7z"/>
<path d="M1225 3380 c-3 -6 1 -7 9 -4 18 7 21 14 7 14 -6 0 -13 -4 -16 -10z"/>
<path d="M1264 3382 c4 -7 2 -21 -5 -30 -12 -15 -11 -15 6 0 16 15 17 20 6 30
-11 11 -13 10 -7 0z"/>
<path d="M1354 3360 c0 -16 2 -28 4 -25 9 8 11 55 3 55 -4 0 -7 -13 -7 -30z"/>
<path d="M2858 3382 c-17 -3 -22 -15 -48 -124 -8 -31 -18 -48 -31 -51 -24 -6
-28 0 -36 60 -3 26 -10 51 -16 54 -15 10 -127 -19 -159 -42 -34 -25 -32 -44 5
-44 31 0 34 -2 41 -40 17 -98 40 -133 73 -112 7 4 18 -2 27 -15 9 -12 16 -18
16 -12 0 5 -6 16 -12 22 -10 10 -10 15 2 22 8 5 23 10 34 10 15 0 17 -5 11
-27 -3 -15 -10 -30 -13 -33 -4 -3 -7 -11 -8 -17 -2 -30 -5 -34 -16 -27 -10 5
-10 4 -2 -5 12 -13 7 -54 -5 -47 -4 3 -6 -8 -5 -22 1 -15 7 -26 13 -24 6 1 11
-2 11 -6 0 -5 10 -8 23 -7 12 2 21 8 19 15 -1 7 4 33 13 59 8 25 18 66 21 91
9 61 21 90 39 92 8 0 21 1 28 2 6 1 12 -10 12 -24 1 -21 -4 -26 -28 -27 -37
-1 -44 -10 -28 -35 9 -15 9 -18 0 -13 -8 5 -10 4 -5 -3 4 -6 13 -9 21 -5 10 3
15 -1 15 -12 0 -10 -5 -13 -12 -9 -7 5 -8 3 -4 -5 5 -7 10 -10 13 -7 3 3 14
-5 25 -17 l20 -22 -16 25 c-9 13 -16 28 -16 32 0 14 28 -3 39 -25 6 -12 9 -14
7 -4 -3 9 -2 17 2 17 5 0 17 8 28 19 21 19 23 51 10 135 -9 55 -20 64 -67 60
l-40 -4 6 32 c3 18 7 38 7 45 1 13 44 27 57 18 11 -6 27 15 27 35 -1 15 -63
29 -98 22z"/>
<path d="M1107 3355 c-15 -14 -27 -29 -27 -32 0 -4 11 4 24 16 18 17 25 19 29
9 3 -7 4 -3 4 10 -1 12 -1 22 -2 22 0 0 -13 -11 -28 -25z"/>
<path d="M1430 3369 c0 -5 5 -7 10 -4 6 3 10 8 10 11 0 2 -4 4 -10 4 -5 0 -10
-5 -10 -11z"/>
<path d="M1413 3351 c0 -11 5 -18 9 -15 4 3 5 11 1 19 -7 21 -12 19 -10 -4z"/>
<path d="M1630 3361 c0 -6 4 -13 10 -16 6 -3 7 1 4 9 -7 18 -14 21 -14 7z"/>
<path d="M2333 3345 c0 -8 4 -12 9 -9 5 3 6 10 3 15 -9 13 -12 11 -12 -6z"/>
<path d="M1155 3341 c3 -5 0 -11 -7 -13 -7 -3 -5 -7 6 -11 9 -4 15 -3 11 2 -3
5 0 11 7 13 7 3 5 7 -6 11 -9 4 -15 3 -11 -2z"/>
<path d="M1610 3340 c0 -5 5 -10 11 -10 5 0 7 5 4 10 -3 6 -8 10 -11 10 -2 0
-4 -4 -4 -10z"/>
<path d="M1667 3339 c7 -7 15 -10 18 -7 3 3 -2 9 -12 12 -14 6 -15 5 -6 -5z"/>
<path d="M255 3329 c-4 -6 -5 -12 -2 -15 2 -3 7 2 10 11 7 17 1 20 -8 4z"/>
<path d="M1215 3330 c-4 -6 -10 -8 -15 -5 -5 3 -11 2 -14 -3 -2 -4 6 -8 18 -8
12 0 23 6 23 13 0 16 -4 16 -12 3z"/>
<path d="M1315 3329 c-4 -6 -5 -12 -2 -15 2 -3 7 2 10 11 7 17 1 20 -8 4z"/>
<path d="M1110 3320 c0 -5 5 -10 10 -10 6 0 10 5 10 10 0 6 -4 10 -10 10 -5 0
-10 -4 -10 -10z"/>
<path d="M1083 3303 c-7 -2 -13 -14 -13 -24 0 -13 -4 -18 -12 -13 -7 4 -8 3
-4 -4 11 -18 15 -15 27 14 9 26 10 26 25 8 14 -18 15 -18 4 4 -6 12 -12 22
-13 21 -1 0 -8 -3 -14 -6z"/>
<path d="M1133 3295 c-3 -9 -3 -19 1 -22 3 -4 6 1 6 11 0 10 5 14 12 10 7 -4
8 -3 4 4 -10 16 -15 15 -23 -3z"/>
<path d="M1035 3290 c3 -5 8 -10 11 -10 2 0 4 5 4 10 0 6 -5 10 -11 10 -5 0
-7 -4 -4 -10z"/>
<path d="M4665 3283 c-4 -13 -10 -23 -14 -24 -53 -6 -70 -16 -81 -45 -12 -30
-8 -40 12 -28 7 5 18 9 23 9 6 0 11 10 13 23 3 18 6 21 17 12 15 -13 39 -4 30
10 -3 5 1 10 8 12 9 2 11 11 6 28 l-7 25 -7 -22z"/>
<path d="M1615 3281 c-3 -5 -2 -12 3 -15 5 -3 9 1 9 9 0 17 -3 19 -12 6z"/>
<path d="M3660 3286 c0 -2 8 -10 18 -17 15 -13 16 -12 3 4 -13 16 -21 21 -21
13z"/>
<path d="M4720 3275 c0 -8 5 -15 10 -15 6 0 10 7 10 15 0 8 -4 15 -10 15 -5 0
-10 -7 -10 -15z"/>
<path d="M1026 3255 c5 -11 4 -16 -3 -12 -5 3 -10 0 -10 -8 0 -12 3 -12 16 -3
9 7 17 13 19 14 1 1 -4 7 -13 14 -13 11 -14 10 -9 -5z"/>
<path d="M1092 3265 c4 -4 0 -13 -8 -20 -15 -11 -15 -12 -1 -12 20 0 30 24 14
33 -7 4 -9 4 -5 -1z"/>
<path d="M1142 3244 c10 -10 20 -16 22 -13 3 3 -5 11 -17 18 -21 13 -21 12 -5
-5z"/>
<path d="M1596 3242 c-2 -4 9 -8 25 -8 33 -2 33 4 1 11 -12 2 -24 1 -26 -3z"/>
<path d="M1040 3215 c-7 -8 -17 -12 -23 -8 -6 4 -7 1 -3 -6 6 -9 13 -8 27 5
10 9 19 19 19 21 0 7 -8 2 -20 -12z"/>
<path d="M4676 3222 c-9 -15 23 -24 42 -12 10 5 12 10 5 10 -6 0 -18 3 -26 6
-8 3 -18 1 -21 -4z"/>
<path d="M980 3206 c0 -2 8 -10 18 -17 15 -13 16 -12 3 4 -13 16 -21 21 -21
13z"/>
<path d="M1055 3201 c-3 -5 -2 -12 3 -15 5 -3 9 1 9 9 0 17 -3 19 -12 6z"/>
<path d="M4072 3194 c-7 -8 -8 -14 -3 -14 10 0 25 19 20 25 -2 1 -10 -3 -17
-11z"/>
<path d="M4106 3202 c-3 -5 1 -9 9 -9 8 0 15 4 15 9 0 4 -4 8 -9 8 -6 0 -12
-4 -15 -8z"/>
<path d="M4575 3170 c-8 -12 25 -57 46 -63 8 -2 28 7 45 20 24 20 26 24 9 22
-20 -2 -46 5 -77 22 -11 5 -19 5 -23 -1z"/>
<path d="M920 3140 c-8 -5 -10 -10 -5 -10 6 0 17 5 25 10 8 5 11 10 5 10 -5 0
-17 -5 -25 -10z"/>
<path d="M3256 3142 c-2 -4 0 -14 6 -22 8 -12 9 -11 4 4 -5 14 -2 17 9 12 9
-3 13 -2 10 4 -7 12 -22 13 -29 2z"/>
<path d="M2395 3111 c-3 -5 -2 -12 3 -15 5 -3 9 1 9 9 0 17 -3 19 -12 6z"/>
<path d="M3288 3103 c6 -2 9 -10 6 -15 -4 -7 -2 -8 5 -4 13 9 5 26 -12 25 -9
0 -8 -2 1 -6z"/>
<path d="M2737 3085 c3 -8 9 -12 14 -9 12 7 11 11 -5 17 -10 4 -13 1 -9 -8z"/>
<path d="M3216 3082 c-3 -5 1 -9 9 -9 8 0 12 4 9 9 -3 4 -7 8 -9 8 -2 0 -6 -4
-9 -8z"/>
<path d="M2305 3058 c8 -20 -10 -25 -18 -5 -4 9 -6 9 -6 0 -1 -18 19 -27 32
-14 8 8 8 14 -2 24 -10 10 -11 9 -6 -5z"/>
<path d="M2393 3055 c0 -8 4 -12 9 -9 5 3 6 10 3 15 -9 13 -12 11 -12 -6z"/>
<path d="M2616 3062 c-3 -5 1 -9 9 -9 8 0 12 4 9 9 -3 4 -7 8 -9 8 -2 0 -6 -4
-9 -8z"/>
<path d="M2701 3050 c14 -31 19 -36 19 -24 0 6 -7 19 -16 30 -14 18 -14 18 -3
-6z"/>
<path d="M3241 3056 c-9 -11 -9 -16 1 -22 7 -4 10 -4 6 1 -4 4 -3 14 3 22 6 7
9 13 6 13 -2 0 -10 -6 -16 -14z"/>
<path d="M4553 3052 c-5 -4 -12 -15 -16 -25 -5 -12 -13 -16 -26 -12 -25 8 -39
-41 -18 -63 13 -12 17 -12 33 6 28 31 39 46 42 62 2 8 8 18 14 21 6 4 4 8 -5
12 -7 3 -18 2 -24 -1z"/>
<path d="M2356 3042 c-3 -5 1 -9 9 -9 8 0 12 4 9 9 -3 4 -7 8 -9 8 -2 0 -6 -4
-9 -8z"/>
<path d="M4015 3030 c-3 -6 1 -7 9 -4 18 7 21 14 7 14 -6 0 -13 -4 -16 -10z"/>
<path d="M2256 3022 c-12 -19 9 -30 29 -15 19 15 19 15 -4 8 -16 -5 -21 -4
-17 4 4 6 5 11 2 11 -3 0 -7 -4 -10 -8z"/>
<path d="M2316 3022 c-3 -5 1 -9 9 -9 8 0 12 4 9 9 -3 4 -7 8 -9 8 -2 0 -6 -4
-9 -8z"/>
<path d="M2413 3015 c0 -8 4 -12 9 -9 5 3 6 10 3 15 -9 13 -12 11 -12 -6z"/>
<path d="M2373 2992 c-1 -22 0 -24 9 -8 6 10 6 22 2 26 -5 5 -10 -3 -11 -18z"/>
<path d="M3230 3016 c0 -2 8 -10 18 -17 15 -13 16 -12 3 4 -13 16 -21 21 -21
13z"/>
<path d="M2185 3000 c-3 -6 1 -7 9 -4 18 7 21 14 7 14 -6 0 -13 -4 -16 -10z"/>
<path d="M2675 3000 c-3 -5 -1 -10 4 -10 6 0 11 5 11 10 0 6 -2 10 -4 10 -3 0
-8 -4 -11 -10z"/>
<path d="M2835 3000 c-3 -5 -1 -10 4 -10 6 0 11 5 11 10 0 6 -2 10 -4 10 -3 0
-8 -4 -11 -10z"/>
<path d="M3993 2992 c0 -12 5 -22 9 -22 11 0 10 12 -2 30 -7 12 -9 10 -7 -8z"/>
<path d="M2949 2983 c-13 -16 -12 -17 4 -4 16 13 21 21 13 21 -2 0 -10 -8 -17
-17z"/>
<path d="M3399 2995 c-1 -3 -2 -13 -3 -22 -1 -10 -4 -23 -8 -29 -4 -6 -1 -11
7 -11 8 0 11 5 8 10 -4 7 1 8 13 4 17 -6 17 -6 3 5 -9 7 -15 21 -13 31 2 15
-4 25 -7 12z"/>
<path d="M4567 2986 c-12 -10 -14 -15 -5 -24 17 -17 26 -15 37 7 13 24 -7 34
-32 17z"/>
<path d="M1495 2980 c3 -5 8 -10 11 -10 2 0 4 5 4 10 0 6 -5 10 -11 10 -5 0
-7 -4 -4 -10z"/>
<path d="M2867 2973 c4 -10 2 -14 -4 -10 -5 3 -10 0 -10 -8 0 -13 4 -12 19 2
22 19 22 19 4 26 -11 4 -13 1 -9 -10z"/>
<path d="M3359 2973 c-13 -16 -12 -17 4 -4 16 13 21 21 13 21 -2 0 -10 -8 -17
-17z"/>
<path d="M406 2965 c4 -8 11 -15 16 -15 6 0 5 6 -2 15 -7 8 -14 15 -16 15 -2
0 -1 -7 2 -15z"/>
<path d="M2915 2969 c-4 -6 -5 -12 -2 -15 2 -3 7 2 10 11 7 17 1 20 -8 4z"/>
<path d="M1786 2953 c-6 -14 -5 -15 5 -6 7 7 10 15 7 18 -3 3 -9 -2 -12 -12z"/>
<path d="M2299 2968 c-5 -18 -6 -38 -1 -34 7 8 12 36 6 36 -2 0 -4 -1 -5 -2z"/>
<path d="M3315 2960 c3 -5 8 -10 11 -10 2 0 4 5 4 10 0 6 -5 10 -11 10 -5 0
-7 -4 -4 -10z"/>
<path d="M3487 2959 c7 -7 15 -10 18 -7 3 3 -2 9 -12 12 -14 6 -15 5 -6 -5z"/>
<path d="M3940 2960 c-9 -6 -10 -10 -3 -10 6 0 15 5 18 10 8 12 4 12 -15 0z"/>
<path d="M2250 2946 c0 -2 7 -7 16 -10 8 -3 12 -2 9 4 -6 10 -25 14 -25 6z"/>
<path d="M2796 2942 c-3 -4 4 -9 15 -9 23 -2 25 3 4 10 -8 4 -16 3 -19 -1z"/>
<path d="M2976 2938 c3 -5 10 -6 15 -3 13 9 11 12 -6 12 -8 0 -12 -4 -9 -9z"/>
<path d="M4596 2942 c-3 -6 -1 -14 5 -17 15 -10 25 3 12 16 -7 7 -13 7 -17 1z"/>
<path d="M1580 2931 c0 -6 -9 -8 -20 -6 -12 2 -18 0 -14 -6 3 -6 9 -8 12 -5 3
3 10 2 16 -4 8 -6 12 -3 13 11 1 10 0 19 -3 19 -2 0 -4 -4 -4 -9z"/>
<path d="M2839 2913 c-13 -16 -12 -17 4 -4 16 13 21 21 13 21 -2 0 -10 -8 -17
-17z"/>
<path d="M3455 2919 c-3 -4 2 -6 10 -5 21 3 28 13 10 13 -9 0 -18 -4 -20 -8z"/>
<path d="M3936 2918 c3 -5 10 -6 15 -3 13 9 11 12 -6 12 -8 0 -12 -4 -9 -9z"/>
<path d="M4039 2913 c-13 -16 -12 -17 4 -4 9 7 17 15 17 17 0 8 -8 3 -21 -13z"/>
<path d="M4456 2908 c-9 -35 -7 -60 4 -53 10 6 11 5 15 -32 1 -13 8 -29 15
-38 10 -12 10 -15 -1 -15 -8 0 -21 15 -29 32 -19 41 -32 44 -47 12 -9 -20 -9
-26 2 -30 9 -4 7 -11 -10 -28 -44 -44 -57 -168 -20 -182 14 -6 15 -21 1 -43
-5 -8 -4 -16 4 -21 7 -4 10 -13 6 -19 -4 -6 -2 -20 4 -31 10 -19 11 -19 29 -2
10 9 16 19 15 21 -2 2 1 12 6 22 8 13 6 20 -7 27 -14 9 -14 11 6 22 13 6 20
14 17 17 -3 3 2 13 11 22 15 14 14 16 -15 25 -18 5 -32 13 -32 19 0 5 -8 3
-17 -4 -17 -13 -17 -13 0 7 9 11 14 24 10 28 -4 4 0 4 10 0 9 -3 17 -14 17
-23 0 -12 2 -13 9 -3 4 8 12 14 17 15 5 1 8 6 6 10 -1 5 3 7 10 5 12 -4 43 47
39 65 0 4 8 25 19 47 24 47 27 68 6 51 -20 -17 -32 5 -14 26 10 13 10 15 0 9
-18 -11 -63 21 -60 41 5 25 -19 26 -26 1z m-46 -246 c0 -15 -2 -15 -10 -2 -13
20 -13 33 0 25 6 -3 10 -14 10 -23z"/>
<path d="M3349 2903 c-13 -16 -12 -17 4 -4 16 13 21 21 13 21 -2 0 -10 -8 -17
-17z"/>
<path d="M2916 2898 c3 -4 11 -5 19 -1 21 7 19 12 -4 10 -11 0 -18 -5 -15 -9z"/>
<path d="M3910 2899 c0 -5 5 -7 10 -4 6 3 10 8 10 11 0 2 -4 4 -10 4 -5 0 -10
-5 -10 -11z"/>
<path d="M4525 2900 c-3 -5 -2 -10 4 -10 5 0 13 5 16 10 3 6 2 10 -4 10 -5 0
-13 -4 -16 -10z"/>
<path d="M4095 2889 c-4 -6 -5 -12 -2 -15 2 -3 7 2 10 11 7 17 1 20 -8 4z"/>
<path d="M1642 2839 c-7 -11 -18 -17 -25 -13 -7 4 -8 3 -4 -1 4 -5 15 -10 23
-11 9 -1 13 0 10 3 -3 4 -1 12 6 20 6 7 9 15 7 18 -3 2 -10 -5 -17 -16z"/>
<path d="M4155 2849 c-4 -6 -5 -12 -2 -15 2 -3 7 2 10 11 7 17 1 20 -8 4z"/>
<path d="M797 2833 c-10 -9 -9 -23 1 -23 5 0 9 7 9 15 0 17 -1 18 -10 8z"/>
<path d="M826 2822 c-3 -5 1 -9 9 -9 8 0 12 4 9 9 -3 4 -7 8 -9 8 -2 0 -6 -4
-9 -8z"/>
<path d="M465 2800 c-3 -5 -2 -10 4 -10 5 0 8 -8 6 -18 -2 -11 3 -19 11 -19
10 0 11 4 3 13 -7 8 -6 14 3 17 11 4 10 6 0 6 -7 1 -10 6 -7 11 3 6 2 10 -4
10 -5 0 -13 -4 -16 -10z"/>
<path d="M2260 2782 c0 -5 7 -13 16 -16 10 -4 14 -1 12 6 -5 15 -28 23 -28 10z"/>
<path d="M835 2771 c-3 -5 -2 -12 3 -15 5 -3 9 1 9 9 0 17 -3 19 -12 6z"/>
<path d="M786 2762 c-3 -5 1 -9 9 -9 8 0 15 4 15 9 0 4 -4 8 -9 8 -6 0 -12 -4
-15 -8z"/>
<path d="M500 2740 c-9 -6 -10 -10 -3 -10 6 0 15 5 18 10 8 12 4 12 -15 0z"/>
<path d="M1995 2740 c-3 -6 1 -7 9 -4 18 7 21 14 7 14 -6 0 -13 -4 -16 -10z"/>
<path d="M773 2733 c-16 -6 -17 -29 -1 -39 7 -4 8 -3 4 5 -4 6 -2 18 4 26 13
16 12 16 -7 8z"/>
<path d="M2293 2723 c0 -9 4 -10 14 -2 7 6 13 12 13 14 0 1 -6 2 -13 2 -8 0
-14 -6 -14 -14z"/>
<path d="M1960 2720 c0 -5 5 -10 11 -10 5 0 7 -5 3 -12 -4 -7 -3 -8 5 -4 9 6
9 11 0 22 -14 17 -19 18 -19 4z"/>
<path d="M2015 2720 c3 -5 11 -10 16 -10 6 0 7 5 4 10 -3 6 -11 10 -16 10 -6
0 -7 -4 -4 -10z"/>
<path d="M2644 2709 c-5 -9 2 -11 31 -11 34 0 48 2 42 8 -10 11 -67 13 -73 3z"/>
<path d="M3426 2711 l-29 -6 -1 -82 c-1 -59 2 -84 11 -87 9 -4 13 5 13 29 0
32 2 34 19 23 24 -15 71 3 71 27 0 19 -16 20 -24 0 -7 -18 -37 -20 -54 -3 -19
19 -15 66 8 78 11 6 25 8 32 4 6 -4 9 -1 6 6 -5 17 -15 19 -52 11z"/>
<path d="M3685 2704 c-24 -25 -17 -36 11 -18 23 16 26 16 41 1 14 -14 14 -17
2 -20 -65 -18 -74 -24 -77 -45 -4 -30 40 -52 69 -34 11 7 19 8 19 2 0 -5 7
-10 16 -10 11 0 14 5 10 16 -3 9 -6 27 -6 40 0 14 -4 22 -10 19 -14 -9 -13 8
2 23 15 15 2 29 -34 36 -17 3 -34 -1 -43 -10z m55 -85 c-11 -19 -44 -26 -54
-11 -7 12 7 29 29 34 29 6 36 -1 25 -23z"/>
<path d="M3961 2711 c-8 -5 -20 -7 -27 -4 -10 4 -12 -11 -11 -59 2 -66 21 -81
23 -18 2 54 3 57 20 64 23 9 42 -10 44 -42 2 -55 4 -70 11 -66 9 5 10 96 1
110 -10 17 -45 25 -61 15z"/>
<path d="M1992 2689 c-7 -12 -11 -24 -8 -27 3 -3 6 0 6 7 0 7 4 10 8 7 4 -2 9
4 9 15 2 24 1 24 -15 -2z"/>
<path d="M2332 2698 c2 -6 10 -13 16 -14 7 -1 8 0 2 3 -5 2 -8 9 -4 14 3 5 0
9 -6 9 -7 0 -10 -5 -8 -12z"/>
<path d="M2958 2663 l-21 -48 -19 44 c-10 24 -21 41 -25 37 -3 -3 -2 -16 4
-29 33 -68 35 -85 11 -109 -24 -24 -18 -34 11 -18 18 9 24 22 20 46 0 3 6 15
14 28 16 24 39 96 31 96 -3 0 -15 -21 -26 -47z"/>
<path d="M3140 2674 c0 -41 8 -41 16 -1 2 14 0 29 -6 32 -6 4 -10 -9 -10 -31z"/>
<path d="M1875 2690 c-4 -6 -10 -8 -14 -6 -4 3 -8 -1 -8 -9 0 -13 4 -12 19 2
18 16 22 23 14 23 -3 0 -8 -5 -11 -10z"/>
<path d="M3490 2681 c0 -20 13 -35 23 -25 7 8 -4 44 -14 44 -5 0 -9 -9 -9 -19z"/>
<path d="M1918 2672 c-11 -15 -11 -15 2 -6 8 6 23 10 33 8 11 -1 16 0 13 4
-13 12 -36 10 -48 -6z"/>
<path d="M2020 2686 c0 -2 7 -6 15 -10 8 -3 15 -1 15 4 0 6 -7 10 -15 10 -8 0
-15 -2 -15 -4z"/>
<path d="M3220 2651 c0 -20 -9 -36 -27 -50 -20 -15 -22 -19 -8 -14 11 3 26 11
34 17 11 8 13 8 7 -1 -4 -7 -2 -13 4 -13 7 0 10 17 9 45 -3 49 -19 63 -19 16z"/>
<path d="M1780 2666 c0 -2 9 -6 20 -9 11 -3 18 -1 14 4 -5 9 -34 13 -34 5z"/>
<path d="M1879 2653 c-13 -16 -12 -17 4 -4 16 13 21 21 13 21 -2 0 -10 -8 -17
-17z"/>
<path d="M2010 2651 c-7 -15 -7 -19 5 -17 8 1 18 6 22 11 5 4 2 5 -6 0 -11 -6
-13 -4 -8 8 9 23 0 21 -13 -2z"/>
<path d="M2059 2668 c-8 -36 -8 -51 0 -38 5 8 7 18 5 22 -3 4 -1 8 5 8 5 0 12
-5 14 -10 3 -6 4 -5 3 2 -2 10 -25 25 -27 16z"/>
<path d="M2661 2631 c-30 -42 -27 -49 24 -48 25 0 45 4 45 9 0 8 -22 12 -47 9
-17 -2 -16 9 3 30 9 10 11 19 5 23 -5 3 -19 -7 -30 -23z"/>
<path d="M1656 2642 c-3 -5 1 -9 9 -9 8 0 12 4 9 9 -3 4 -7 8 -9 8 -2 0 -6 -4
-9 -8z"/>
<path d="M1790 2641 c0 -6 4 -13 10 -16 6 -3 7 1 4 9 -7 18 -14 21 -14 7z"/>
<path d="M1735 2631 c-3 -5 0 -13 6 -17 8 -5 9 -3 4 6 -6 10 -4 12 9 7 10 -4
15 -3 11 3 -8 13 -22 13 -30 1z"/>
<path d="M1826 2618 c3 -5 10 -6 15 -3 13 9 11 12 -6 12 -8 0 -12 -4 -9 -9z"/>
<path d="M2100 2612 c6 -12 8 -28 4 -34 -4 -7 -3 -8 4 -4 16 10 15 18 -4 42
-14 18 -15 18 -4 -4z"/>
<path d="M2154 2621 c4 -5 3 -11 -1 -14 -5 -2 -2 -2 5 -1 6 2 12 -1 12 -6 0
-6 5 -10 10 -10 6 0 5 8 -2 20 -7 11 -16 20 -21 20 -4 0 -6 -4 -3 -9z"/>
<path d="M3140 2623 c1 -18 18 -35 24 -24 4 6 2 11 -4 11 -6 0 -8 5 -5 10 3 6
1 10 -4 10 -6 0 -11 -3 -11 -7z"/>
<path d="M4530 2620 c0 -5 5 -10 11 -10 5 0 7 5 4 10 -3 6 -8 10 -11 10 -2 0
-4 -4 -4 -10z"/>
<path d="M1662 2607 c10 -8 15 -16 12 -19 -2 -3 2 -8 10 -11 9 -4 18 -1 22 5
4 7 3 8 -4 4 -7 -4 -12 -3 -12 3 0 6 -10 15 -22 21 -21 10 -21 10 -6 -3z"/>
<path d="M1766 2605 c-11 -8 -15 -15 -9 -15 6 0 16 7 23 15 16 19 11 19 -14 0z"/>
<path d="M1710 2606 c0 -2 7 -7 16 -10 8 -3 12 -2 9 4 -6 10 -25 14 -25 6z"/>
<path d="M1634 2592 c3 -5 0 -13 -6 -15 -9 -4 -10 -6 -1 -6 17 -1 25 16 12 25
-7 4 -9 3 -5 -4z"/>
<path d="M770 2579 c0 -5 5 -7 10 -4 6 3 10 8 10 11 0 2 -4 4 -10 4 -5 0 -10
-5 -10 -11z"/>
<path d="M1555 2570 c-4 -6 -11 -7 -17 -4 -7 4 -8 2 -4 -5 6 -9 11 -9 22 0 14
11 18 19 10 19 -3 0 -8 -5 -11 -10z"/>
<path d="M1715 2569 c-4 -6 -5 -12 -2 -15 2 -3 7 2 10 11 7 17 1 20 -8 4z"/>
<path d="M1748 2573 c7 -3 16 -2 19 1 4 3 -2 6 -13 5 -11 0 -14 -3 -6 -6z"/>
<path d="M2155 2570 c-4 -6 -10 -8 -15 -5 -5 3 -11 1 -14 -4 -8 -13 22 -7 36
7 7 7 9 12 6 12 -4 0 -10 -5 -13 -10z"/>
<path d="M2188 2573 c6 -2 18 -2 25 0 6 3 1 5 -13 5 -14 0 -19 -2 -12 -5z"/>
<path d="M590 2558 c0 -4 4 -8 9 -8 6 0 12 4 15 8 3 5 -1 9 -9 9 -8 0 -15 -4
-15 -9z"/>
<path d="M1595 2561 c-6 -11 13 -26 22 -17 4 3 1 6 -6 6 -7 0 -9 5 -6 10 3 6
4 10 1 10 -3 0 -7 -4 -11 -9z"/>
<path d="M1639 2553 c-13 -17 -13 -17 6 -3 11 8 22 16 24 17 2 2 0 3 -6 3 -6
0 -17 -8 -24 -17z"/>
<path d="M4322 2561 c-7 -4 -14 -18 -15 -29 -1 -12 -5 -22 -9 -22 -4 0 -8 -9
-8 -21 0 -11 4 -18 9 -14 5 3 12 1 15 -4 3 -5 -2 -11 -12 -13 -10 -3 -18 -15
-19 -27 -2 -19 1 -20 13 -11 11 10 14 9 14 -2 0 -8 6 -15 13 -15 6 0 18 -2 26
-4 8 -2 17 4 19 15 3 14 0 17 -11 13 -8 -3 -21 0 -29 6 -7 7 -12 11 -9 10 2
-1 10 5 19 13 12 13 16 13 23 2 6 -9 9 -7 9 10 0 24 -10 28 -27 11 -16 -16
-26 6 -14 29 7 13 12 64 6 62 0 0 -6 -4 -13 -9z"/>
<path d="M4471 2547 c-13 -21 -12 -21 5 -5 10 10 16 20 13 22 -3 3 -11 -5 -18
-17z"/>
<path d="M553 2536 c0 -9 4 -16 8 -16 4 0 12 -15 19 -32 7 -19 14 -27 17 -20
3 7 0 19 -7 27 -6 8 -8 20 -4 27 4 7 4 10 -1 6 -4 -4 -13 0 -20 8 -11 15 -12
15 -12 0z"/>
<path d="M1455 2541 c-3 -5 -2 -12 3 -15 5 -3 9 1 9 9 0 17 -3 19 -12 6z"/>
<path d="M1565 2542 c-13 -9 -17 -32 -6 -32 5 0 11 9 14 20 6 22 6 22 -8 12z"/>
<path d="M1671 2528 c5 -10 13 -18 16 -18 3 0 3 3 0 7 -4 3 -3 11 3 17 6 8 3
12 -10 12 -15 0 -16 -4 -9 -18z"/>
<path d="M2265 2520 c10 -11 20 -20 23 -20 3 0 -3 9 -13 20 -10 11 -20 20 -23
20 -3 0 3 -9 13 -20z"/>
<path d="M1650 2516 c0 -8 4 -17 9 -20 5 -4 7 3 4 14 -6 23 -13 26 -13 6z"/>
<path d="M4511 2527 c2 -1 13 -9 24 -17 19 -14 19 -14 6 3 -7 9 -18 17 -24 17
-6 0 -8 -1 -6 -3z"/>
<path d="M2236 2507 c3 -10 9 -15 12 -12 3 3 0 11 -7 18 -10 9 -11 8 -5 -6z"/>
<path d="M1415 2500 c-3 -5 -1 -10 4 -10 6 0 11 5 11 10 0 6 -2 10 -4 10 -3 0
-8 -4 -11 -10z"/>
<path d="M2318 2500 c13 -15 17 -34 4 -26 -4 2 -8 -10 -9 -27 -1 -18 -4 -42
-7 -54 -3 -13 -8 -31 -10 -40 -2 -10 -9 -31 -15 -46 -6 -16 -9 -32 -6 -37 3
-4 -2 -13 -10 -20 -10 -8 -11 -18 -4 -36 11 -32 11 -34 -2 -34 -5 0 -8 4 -4 9
3 5 1 12 -3 15 -5 3 -15 -13 -21 -35 -7 -23 -15 -48 -18 -57 -5 -12 -2 -14 11
-9 13 5 17 3 14 -11 -2 -10 -11 -16 -22 -14 -14 3 -16 0 -7 -17 15 -27 14 -34
-4 -27 -11 4 -19 -3 -26 -22 -21 -54 -21 -73 3 -94 l23 -20 -33 5 c-19 3 -31
3 -28 0 3 -4 -2 -15 -11 -26 -17 -20 -17 -20 2 -13 11 5 30 10 43 11 18 3 22
0 17 -16 -4 -11 -2 -19 6 -19 8 0 8 -5 -2 -17 -10 -11 -10 -14 -1 -9 7 4 12 1
12 -8 0 -14 12 -20 33 -17 4 0 7 -6 7 -14 0 -8 -5 -15 -11 -15 -5 0 -7 -5 -3
-11 4 -8 13 0 23 20 9 17 21 28 26 24 4 -4 4 -1 -1 7 -15 26 -15 50 0 56 9 3
12 13 9 22 -6 15 -4 16 13 2 11 -8 9 -5 -4 8 -24 23 -23 25 29 25 9 0 16 6 16
13 0 10 -4 11 -13 3 -15 -12 -20 -4 -23 40 -1 24 2 32 12 28 8 -3 14 4 15 20
1 13 7 34 14 46 6 12 13 33 15 47 2 14 5 32 7 40 1 9 6 22 11 29 5 10 4 12 -3
7 -7 -4 -12 -2 -12 4 0 6 6 13 14 16 9 3 12 13 8 27 -5 20 -4 21 14 7 17 -13
18 -13 8 0 -9 12 -12 65 -4 65 2 0 4 9 5 20 2 11 8 34 13 51 12 38 0 66 -20
46 -15 -15 -38 -16 -38 -1 0 6 7 9 15 6 8 -4 17 -2 20 3 4 6 16 10 28 10 l21
0 -22 16 c-23 16 -62 11 -62 -8 0 -6 -6 -5 -16 3 -8 7 -13 21 -10 32 2 10 2
16 -1 13 -4 -3 -13 0 -22 6 -13 10 -14 10 -3 -2z m56 -210 c-12 -5 -25 -14
-30 -21 -5 -9 -2 -11 9 -6 19 7 33 -23 15 -35 -21 -12 -28 -9 -28 12 0 11 -6
18 -12 16 -7 -1 -10 -1 -6 1 4 2 4 12 1 21 -3 13 -2 14 4 4 8 -10 12 -10 23 3
7 8 20 15 29 14 11 0 10 -3 -5 -9z m-44 -100 c0 -5 -2 -10 -4 -10 -3 0 -8 5
-11 10 -3 6 -1 10 4 10 6 0 11 -4 11 -10z m-60 -51 c0 -5 4 -8 9 -5 5 3 11 -1
15 -9 8 -21 -8 -19 -29 5 -10 11 -13 20 -7 20 7 0 12 -5 12 -11z m-8 -148 c8
12 9 12 5 -1 -2 -8 -12 -14 -21 -14 -9 1 -16 -3 -16 -10 -1 -12 -30 23 -30 36
0 5 12 1 26 -8 22 -15 27 -15 36 -3z m-14 -68 c1 -27 1 -27 -13 -9 -14 18 -12
25 10 36 0 0 2 -12 3 -27z"/>
<path d="M741 2484 c0 -11 3 -14 6 -6 3 7 2 16 -1 19 -3 4 -6 -2 -5 -13z"/>
<path d="M613 2485 c4 -5 0 -19 -8 -31 -8 -13 -11 -25 -7 -28 5 -3 13 8 19 25
8 21 8 31 0 36 -7 3 -9 2 -4 -2z"/>
<path d="M1306 2442 c-3 -5 1 -9 9 -9 8 0 12 4 9 9 -3 4 -7 8 -9 8 -2 0 -6 -4
-9 -8z"/>
<path d="M4256 2403 c-6 -14 -5 -15 5 -6 7 7 10 15 7 18 -3 3 -9 -2 -12 -12z"/>
<path d="M633 2399 c-15 -15 -17 -39 -3 -39 5 0 7 -6 4 -14 -9 -24 8 -44 31
-36 19 7 19 7 -3 19 -16 8 -20 16 -14 24 5 7 6 22 3 35 -5 18 -8 21 -18 11z"/>
<path d="M4249 2353 c-19 -23 -44 -63 -52 -84 -8 -23 32 -66 44 -47 7 10 9 9
9 -4 0 -10 5 -18 10 -18 12 0 9 -19 -5 -36 -12 -14 -32 -7 -60 19 -20 18 -20
18 -23 -4 -2 -12 -10 -32 -17 -43 -24 -38 -22 -59 5 -61 14 -1 31 2 38 7 6 6
12 7 12 2 0 -5 4 -2 10 6 5 8 11 12 15 9 3 -3 -6 -18 -19 -32 -13 -14 -21 -28
-18 -31 3 -3 -4 -6 -16 -6 -11 0 -24 -5 -28 -12 -4 -7 -3 -8 4 -4 19 11 14
-35 -5 -58 -10 -12 -14 -18 -10 -14 9 6 47 -26 47 -39 0 -4 -5 -2 -11 4 -12
12 -39 6 -51 -11 -11 -17 3 -28 20 -14 14 10 15 10 5 -1 -6 -7 -9 -20 -6 -27
3 -8 0 -14 -7 -14 -9 0 -9 -4 1 -17 8 -9 9 -14 3 -10 -6 3 -11 1 -11 -6 0 -7
11 -13 24 -13 12 -1 21 2 18 6 -3 5 -1 11 5 15 6 4 8 10 5 15 -3 5 -1 11 4 15
6 3 7 13 4 22 -5 12 -3 14 7 8 10 -6 12 -4 7 8 -3 9 1 18 10 21 9 4 13 9 10
12 -3 4 6 38 20 76 15 39 22 73 17 76 -15 12 -31 46 -27 60 6 17 23 15 23 -3
0 -8 5 -15 10 -15 14 0 50 60 50 83 0 10 4 16 10 12 5 -3 5 7 -1 25 -6 16 -15
30 -21 30 -6 0 -8 7 -5 15 4 8 2 17 -3 20 -5 3 -7 11 -5 18 3 7 -3 22 -13 35
-17 22 -19 22 -33 5z m45 -208 c-4 -8 -11 -15 -16 -15 -6 0 -5 6 2 15 7 8 14
15 16 15 2 0 1 -7 -2 -15z m-84 1 c0 -3 -4 -8 -10 -11 -5 -3 -10 -1 -10 4 0 6
5 11 10 11 6 0 10 -2 10 -4z m-3 -162 c3 -8 1 -20 -4 -25 -7 -7 -12 -2 -15 15
-6 28 9 36 19 10z"/>
<path d="M4374 2358 c2 -9 -2 -19 -10 -22 -15 -6 -11 -26 6 -26 14 0 20 31 9
48 -10 16 -10 16 -5 0z"/>
<path d="M1230 2264 c0 -8 5 -12 10 -9 6 4 8 11 5 16 -9 14 -15 11 -15 -7z"/>
<path d="M663 2230 c6 -22 14 -35 18 -29 9 14 0 45 -16 59 -10 8 -10 2 -2 -30z"/>
<path d="M706 2238 c3 -5 10 -6 15 -3 13 9 11 12 -6 12 -8 0 -12 -4 -9 -9z"/>
<path d="M711 2207 c-8 -10 -7 -14 2 -14 8 0 14 6 14 14 0 7 -1 13 -2 13 -2 0
-8 -6 -14 -13z"/>
<path d="M4235 2190 c3 -5 8 -10 11 -10 2 0 4 5 4 10 0 6 -5 10 -11 10 -5 0
-7 -4 -4 -10z"/>
<path d="M697 2153 c-2 -4 -1 -17 3 -27 6 -19 7 -19 14 -1 7 19 -8 44 -17 28z"/>
<path d="M2395 2141 c-3 -5 -2 -12 3 -15 5 -3 9 1 9 9 0 17 -3 19 -12 6z"/>
<path d="M1171 2124 c0 -11 3 -14 6 -6 3 7 2 16 -1 19 -3 4 -6 -2 -5 -13z"/>
<path d="M736 2107 c3 -10 9 -15 12 -12 3 3 0 11 -7 18 -10 9 -11 8 -5 -6z"/>
<path d="M4290 2100 c0 -5 5 -10 11 -10 5 0 7 5 4 10 -3 6 -8 10 -11 10 -2 0
-4 -4 -4 -10z"/>
<path d="M4112 1997 c-7 -8 -9 -17 -5 -20 3 -4 -2 -9 -11 -13 -24 -9 -20 -19
10 -22 15 -1 23 2 19 9 -4 5 -2 15 4 22 5 7 6 18 2 25 -6 10 -10 10 -19 -1z"/>
<path d="M2321 1973 c-1 -17 16 -25 25 -12 4 7 3 9 -4 5 -5 -3 -13 0 -15 6 -4
9 -6 10 -6 1z"/>
<path d="M994 1948 l-19 -23 23 19 c12 11 22 21 22 23 0 8 -8 2 -26 -19z"/>
<path d="M4067 1913 c-14 -13 -7 -43 10 -43 13 0 14 3 6 11 -6 6 -9 18 -6 25
5 15 1 18 -10 7z"/>
<path d="M1136 1902 c-3 -5 1 -9 9 -9 8 0 12 4 9 9 -3 4 -7 8 -9 8 -2 0 -6 -4
-9 -8z"/>
<path d="M1576 1887 c3 -10 9 -15 12 -12 3 3 0 11 -7 18 -10 9 -11 8 -5 -6z"/>
<path d="M907 1860 c-13 -25 -13 -31 -1 -41 12 -9 13 -9 9 4 -4 8 -2 18 4 22
6 3 11 -1 11 -11 0 -13 3 -15 10 -8 7 7 8 19 1 37 -13 34 -16 34 -34 -3z"/>
<path d="M4053 1842 c-12 -9 -35 -51 -51 -92 -41 -102 -44 -117 -32 -125 5 -3
10 -1 10 5 0 6 5 8 10 5 6 -4 7 -11 4 -17 -5 -7 -1 -9 9 -5 9 3 19 2 23 -4 3
-6 13 -8 21 -4 13 4 13 3 4 -9 -6 -7 -8 -22 -4 -31 4 -11 2 -16 -3 -12 -6 3
-16 2 -24 -4 -11 -6 -11 -9 -2 -10 21 -3 27 -4 37 -11 6 -4 12 2 12 14 1 12 6
24 10 27 11 8 45 84 35 77 -5 -3 -9 1 -9 9 0 8 4 12 8 9 4 -2 11 1 15 7 3 6 1
15 -6 19 -9 6 -7 10 9 15 21 6 29 25 11 25 -5 0 -11 -1 -13 -2 -8 -8 -33 29
-29 44 2 10 -1 25 -8 33 -9 11 -10 18 -1 28 10 13 6 27 -8 27 -3 0 -16 -8 -28
-18z"/>
<path d="M2313 1835 c0 -8 4 -12 9 -9 5 3 6 10 3 15 -9 13 -12 11 -12 -6z"/>
<path d="M2316 1798 c3 -5 10 -6 15 -3 13 9 11 12 -6 12 -8 0 -12 -4 -9 -9z"/>
<path d="M953 1775 c-15 -16 -6 -26 15 -18 11 5 13 3 7 -7 -5 -9 -4 -11 4 -6
9 6 9 12 -1 24 -7 10 -12 18 -13 18 0 1 -5 -4 -12 -11z"/>
<path d="M4140 1770 c-9 -6 -10 -10 -3 -10 6 0 15 5 18 10 8 12 4 12 -15 0z"/>
<path d="M1046 1688 c3 -4 9 -8 15 -8 5 0 9 4 9 8 0 5 -7 9 -15 9 -8 0 -12 -4
-9 -9z"/>
<path d="M1021 1611 c-10 -6 -9 -10 5 -15 20 -8 25 -4 16 11 -4 7 -13 9 -21 4z"/>
<path d="M4015 1590 c3 -5 8 -10 11 -10 2 0 4 5 4 10 0 6 -5 10 -11 10 -5 0
-7 -4 -4 -10z"/>
<path d="M3940 1575 c0 -8 4 -15 8 -15 5 0 9 -13 10 -30 1 -32 -7 -37 -25 -19
-8 8 -13 8 -17 0 -4 -6 -2 -11 3 -11 6 0 11 -8 10 -17 0 -11 -3 -13 -6 -5 -7
18 -23 15 -23 -6 0 -10 -7 -28 -16 -40 -10 -15 -11 -22 -3 -22 14 0 49 -39 49
-54 0 -6 -5 -4 -10 4 -8 12 -10 10 -10 -9 0 -18 4 -22 20 -18 16 4 18 2 10
-13 -7 -13 -7 -21 0 -25 7 -4 7 -12 2 -18 -4 -7 -8 -19 -7 -27 5 -48 5 -46 15
-30 5 8 7 23 4 33 -3 9 0 17 6 17 7 0 10 7 7 14 -4 9 2 17 12 21 13 4 17 12
14 25 -3 11 -9 17 -14 15 -4 -3 -13 4 -19 15 -6 12 -7 20 -1 20 5 0 12 -6 15
-12 3 -7 3 -2 0 11 -5 19 -3 23 9 18 11 -4 14 -2 11 7 -3 8 -1 17 5 21 6 3 11
1 11 -4 0 -6 5 -11 10 -11 7 0 7 6 0 19 -7 14 -7 22 1 26 7 5 4 14 -7 26 -10
11 -12 19 -6 19 7 0 12 7 12 15 0 8 -6 15 -14 15 -8 0 -20 14 -28 30 -13 31
-38 41 -38 15z m68 -110 c2 -5 -6 -12 -17 -17 -16 -6 -21 -3 -21 11 0 18 32
23 38 6z"/>
<path d="M2195 1561 c-3 -5 -2 -12 3 -15 5 -3 9 1 9 9 0 17 -3 19 -12 6z"/>
<path d="M4115 1540 c-3 -5 -1 -10 4 -10 6 0 11 5 11 10 0 6 -2 10 -4 10 -3 0
-8 -4 -11 -10z"/>
<path d="M2183 1524 c9 -11 15 -24 12 -27 -3 -4 -2 -5 2 -2 4 3 8 13 9 21 1 9
0 13 -3 10 -4 -3 -13 0 -22 6 -12 10 -12 7 2 -8z"/>
<path d="M890 1499 c0 -5 5 -7 10 -4 6 3 10 8 10 11 0 2 -4 4 -10 4 -5 0 -10
-5 -10 -11z"/>
<path d="M2135 1500 c3 -5 8 -10 11 -10 2 0 4 5 4 10 0 6 -5 10 -11 10 -5 0
-7 -4 -4 -10z"/>
<path d="M4067 1499 c7 -7 15 -10 18 -7 3 3 -2 9 -12 12 -14 6 -15 5 -6 -5z"/>
<path d="M2199 1473 c-13 -16 -12 -17 4 -4 9 7 17 15 17 17 0 8 -8 3 -21 -13z"/>
<path d="M2157 1467 c-3 -8 1 -14 8 -14 7 0 11 6 8 14 -3 7 -6 13 -8 13 -2 0
-5 -6 -8 -13z"/>
<path d="M4093 1455 c0 -8 4 -12 9 -9 5 3 6 10 3 15 -9 13 -12 11 -12 -6z"/>
<path d="M2400 1369 c-52 -3 -90 -6 -83 -7 13 -2 6 -39 -10 -49 -6 -3 -7 -1
-3 5 4 7 3 12 -3 12 -6 0 -8 6 -5 14 3 8 0 17 -7 22 -7 4 -10 3 -5 -4 3 -6 -4
-21 -16 -33 -13 -12 -18 -19 -12 -16 7 4 14 -2 17 -14 3 -12 10 -18 16 -14 6
3 11 1 11 -5 0 -7 -8 -9 -19 -5 -22 7 -51 -3 -51 -17 0 -6 9 -8 21 -5 14 4 17
2 11 -6 -7 -8 -5 -16 4 -25 8 -7 14 -8 14 -3 0 5 10 8 22 6 16 -3 19 -2 10 7
-8 8 -6 16 10 29 22 19 48 15 29 -4 -6 -6 -11 -16 -11 -21 0 -6 5 -4 10 4 9
13 10 13 10 0 0 -9 9 -16 20 -16 11 0 20 3 20 6 0 3 16 4 35 2 28 -3 35 -1 35
12 0 10 5 14 10 11 6 -4 8 -11 5 -16 -9 -13 9 -11 23 3 8 8 15 8 28 -3 10 -8
15 -9 11 -2 -4 6 -2 15 4 19 8 4 4 11 -11 19 l-23 12 22 22 c13 13 29 20 36
17 15 -5 42 21 32 31 -4 3 -18 -2 -31 -11 -16 -10 -27 -12 -31 -6 -4 6 -10 8
-15 5 -5 -3 -15 3 -22 12 -11 16 -25 17 -108 12z m-30 -41 c0 -16 -3 -19 -11
-11 -6 6 -8 16 -5 22 11 17 16 13 16 -11z m110 3 c0 -20 -32 -37 -50 -26 -16
10 -12 33 8 38 34 9 42 7 42 -12z"/>
<path d="M4035 1361 c-3 -5 -2 -12 3 -15 5 -3 9 1 9 9 0 17 -3 19 -12 6z"/>
<path d="M2667 1354 c-3 -3 -3 -12 0 -20 3 -8 -1 -14 -10 -14 -8 0 -28 -15
-43 -32 -15 -18 -29 -31 -31 -30 -3 2 -7 1 -10 -2 -4 -3 1 -6 10 -6 10 0 17
-5 17 -11 0 -8 5 -8 15 1 12 10 15 10 15 0 0 -10 3 -10 14 -1 9 8 16 8 20 2 4
-5 14 -10 24 -10 16 1 63 -6 92 -13 7 -2 16 5 18 15 2 13 -3 17 -22 17 -14 0
-27 4 -30 9 -3 5 -19 8 -36 7 -23 -2 -27 1 -18 11 8 11 7 12 -6 7 -17 -7 -23
11 -6 21 6 3 10 15 10 25 0 20 -13 33 -23 24z"/>
<path d="M2770 1350 c0 -17 30 -58 46 -64 10 -4 13 -2 7 7 -4 6 -8 18 -9 25
-5 29 -44 57 -44 32z"/>
<path d="M3880 1341 c0 -6 4 -13 10 -16 6 -3 7 1 4 9 -7 18 -14 21 -14 7z"/>
<path d="M2700 1330 c0 -5 4 -10 9 -10 5 0 18 -3 28 -6 16 -5 16 -4 -1 10 -23
18 -36 20 -36 6z"/>
<path d="M2948 1318 c2 -10 10 -18 17 -18 12 0 58 -81 58 -103 0 -7 7 -13 16
-13 33 -1 93 -15 112 -24 20 -11 24 -4 10 19 -6 9 -16 11 -32 6 -23 -7 -24 -7
-6 12 15 18 16 21 3 26 -8 3 -17 1 -19 -6 -3 -8 -10 -5 -21 8 -8 11 -16 17
-16 12 0 -8 -80 75 -80 84 0 4 -11 9 -24 11 -19 4 -22 1 -18 -14z"/>
<path d="M950 1316 c0 -2 8 -10 18 -17 15 -13 16 -12 3 4 -13 16 -21 21 -21
13z"/>
<path d="M3046 1301 c-3 -5 8 -11 24 -13 20 -3 30 0 30 9 0 14 -46 18 -54 4z"/>
<path d="M2910 1270 c-9 -6 -10 -10 -3 -10 6 0 15 5 18 10 8 12 4 12 -15 0z"/>
<path d="M2840 1256 c0 -2 6 -9 14 -15 11 -9 16 -9 22 0 4 8 3 9 -4 5 -7 -4
-12 -2 -12 3 0 6 -4 11 -10 11 -5 0 -10 -2 -10 -4z"/>
<path d="M2910 1230 c0 -27 34 -44 50 -25 7 9 11 16 9 18 -57 33 -59 33 -59 7z"/>
<path d="M3295 1240 c-4 -6 6 -10 22 -10 22 0 25 2 13 10 -19 12 -27 12 -35 0z"/>
<path d="M3810 1239 c0 -5 4 -8 9 -4 6 3 15 -3 20 -14 6 -10 18 -21 28 -25 17
-6 17 -5 1 8 -10 7 -18 21 -18 30 0 9 -8 16 -20 16 -11 0 -20 -5 -20 -11z"/>
<path d="M995 1220 c3 -5 8 -10 11 -10 2 0 4 5 4 10 0 6 -5 10 -11 10 -5 0 -7
-4 -4 -10z"/>
<path d="M2166 1219 c3 -5 14 -9 25 -9 10 0 19 4 19 9 0 5 -11 9 -25 9 -13 0
-22 -4 -19 -9z"/>
<path d="M3354 1218 c3 -10 1 -20 -4 -23 -12 -7 -41 6 -34 16 3 5 -2 9 -10 9
-9 0 -17 -7 -17 -15 -3 -32 -4 -36 -18 -44 -22 -14 -6 -39 31 -49 18 -6 42
-13 53 -18 19 -7 18 -5 -2 18 -24 25 -31 44 -12 33 6 -4 9 0 7 10 -2 14 4 18
27 20 17 1 36 -3 43 -8 9 -7 12 -7 10 0 -2 6 2 11 7 11 21 -1 35 -11 35 -25 0
-13 3 -13 15 -3 8 7 15 18 15 25 0 17 -27 27 -34 12 -2 -7 -5 -5 -5 4 -1 21
-77 43 -85 25 -3 -7 -8 -6 -16 4 -10 13 -11 13 -6 -2z"/>
<path d="M3813 1206 c4 -10 1 -13 -9 -9 -15 5 -15 4 -18 -64 -3 -49 9 -76 23
-54 6 9 11 10 15 2 11 -16 -22 -25 -39 -11 -12 10 -15 10 -15 -3 0 -14 -3 -14
-27 -2 -15 8 -30 12 -35 9 -4 -3 -8 2 -8 10 0 10 -6 13 -15 9 -14 -5 -14 -8 0
-30 9 -14 14 -27 11 -30 -8 -8 36 -39 49 -35 6 2 -3 -9 -20 -23 -16 -15 -23
-23 -15 -19 25 13 48 12 43 -3 -3 -7 1 -13 10 -13 15 0 32 49 29 85 -2 20 -1
20 13 1 8 -10 12 -22 10 -27 -3 -4 5 -5 17 -1 19 4 21 3 12 -9 -9 -11 -9 -17
2 -27 8 -7 14 -9 15 -5 2 25 11 54 33 108 17 40 21 62 14 66 -6 4 -8 14 -5 24
4 9 3 14 -3 10 -6 -3 -10 -12 -10 -20 0 -8 -9 -13 -20 -12 -22 1 -24 5 -11 26
7 11 2 22 -15 38 -29 26 -39 29 -31 9z m87 -86 c0 -5 -5 -10 -11 -10 -5 0 -7
5 -4 10 3 6 8 10 11 10 2 0 4 -4 4 -10z"/>
<path d="M2347 1199 c7 -7 15 -10 18 -7 3 3 -2 9 -12 12 -14 6 -15 5 -6 -5z"/>
<path d="M1015 1180 c3 -5 8 -10 11 -10 2 0 4 5 4 10 0 6 -5 10 -11 10 -5 0
-7 -4 -4 -10z"/>
<path d="M2074 1173 c2 -9 8 -19 14 -21 7 -2 9 -9 6 -14 -5 -7 -2 -8 6 -3 10
6 10 11 -3 20 -9 7 -14 14 -11 17 3 4 1 9 -4 12 -6 3 -9 -2 -8 -11z"/>
<path d="M2110 1171 c0 -6 4 -12 8 -15 5 -3 9 1 9 9 0 8 -4 15 -9 15 -4 0 -8
-4 -8 -9z"/>
<path d="M2629 1163 c-13 -16 -12 -17 4 -4 16 13 21 21 13 21 -2 0 -10 -8 -17
-17z"/>
<path d="M3196 1165 c4 -8 8 -15 10 -15 2 0 4 7 4 15 0 8 -4 15 -10 15 -5 0
-7 -7 -4 -15z"/>
<path d="M1850 1166 c0 -2 7 -7 16 -10 8 -3 12 -2 9 4 -6 10 -25 14 -25 6z"/>
<path d="M1966 1162 c-3 -5 1 -9 9 -9 8 0 12 4 9 9 -3 4 -7 8 -9 8 -2 0 -6 -4
-9 -8z"/>
<path d="M2456 1162 c-3 -4 4 -9 15 -9 23 -2 25 3 4 10 -8 4 -16 3 -19 -1z"/>
<path d="M2206 1138 c3 -5 10 -6 15 -3 13 9 11 12 -6 12 -8 0 -12 -4 -9 -9z"/>
<path d="M3595 1139 c-4 -6 -5 -13 -2 -16 7 -7 27 6 27 18 0 12 -17 12 -25 -2z"/>
<path d="M3644 1125 c22 -17 40 -20 32 -6 -3 5 -16 11 -28 14 -22 6 -22 5 -4
-8z"/>
<path d="M1776 1113 c-6 -14 -5 -15 5 -6 7 7 10 15 7 18 -3 3 -9 -2 -12 -12z"/>
<path d="M1810 1121 c0 -6 4 -13 10 -16 6 -3 7 1 4 9 -7 18 -14 21 -14 7z"/>
<path d="M2106 1122 c-3 -5 1 -9 9 -9 8 0 12 4 9 9 -3 4 -7 8 -9 8 -2 0 -6 -4
-9 -8z"/>
<path d="M3700 1116 c0 -2 7 -6 15 -10 8 -3 15 -1 15 4 0 6 -7 10 -15 10 -8 0
-15 -2 -15 -4z"/>
<path d="M1870 1102 c0 -5 7 -9 15 -9 8 0 12 4 9 9 -3 4 -9 8 -15 8 -5 0 -9
-4 -9 -8z"/>
<path d="M1953 1093 c0 -9 4 -10 14 -2 7 6 13 12 13 14 0 1 -6 2 -13 2 -8 0
-14 -6 -14 -14z"/>
<path d="M2028 1103 c10 -4 10 -8 0 -21 -9 -12 -6 -11 10 2 12 11 22 20 22 20
0 1 -10 2 -22 3 -13 0 -17 -1 -10 -4z"/>
<path d="M2145 1100 c-3 -6 1 -7 9 -4 18 7 21 14 7 14 -6 0 -13 -4 -16 -10z"/>
<path d="M3484 1097 c-7 -19 1 -33 26 -47 19 -10 19 -9 8 17 -17 40 -26 49
-34 30z"/>
<path d="M1669 1083 c-13 -16 -12 -17 4 -4 16 13 21 21 13 21 -2 0 -10 -8 -17
-17z"/>
<path d="M2089 1083 c-13 -16 -12 -17 4 -4 16 13 21 21 13 21 -2 0 -10 -8 -17
-17z"/>
<path d="M1793 1074 c0 -9 4 -11 12 -4 7 5 14 9 16 7 2 -1 3 0 1 2 -7 11 -29
7 -29 -5z"/>
<path d="M1979 1073 c-13 -17 -13 -17 6 -3 11 8 22 16 24 17 2 2 0 3 -6 3 -6
0 -17 -8 -24 -17z"/>
<path d="M2057 1075 c-4 -8 -3 -16 1 -19 4 -3 9 4 9 15 2 23 -3 25 -10 4z"/>
<path d="M3625 1070 c-12 -13 -14 -20 -5 -20 7 0 10 -7 6 -15 -3 -9 0 -15 9
-15 8 0 15 -7 15 -16 0 -8 5 -12 11 -8 6 3 9 15 6 25 -3 11 -1 19 3 19 4 0 3
11 -3 25 -14 30 -19 31 -42 5z"/>
<path d="M1748 1051 c3 -8 1 -12 -5 -8 -5 3 -10 0 -10 -8 0 -10 4 -12 12 -5 7
5 15 8 18 5 4 -3 5 -2 2 2 -3 3 -1 11 5 17 6 8 3 12 -9 12 -12 0 -17 -5 -13
-15z"/>
<path d="M1655 1050 c-4 -6 -10 -8 -14 -6 -8 6 -9 -50 0 -58 3 -3 5 4 4 17 -1
12 5 30 13 40 8 9 12 17 9 17 -3 0 -9 -5 -12 -10z"/>
<path d="M1886 1038 c3 -5 10 -6 15 -3 13 9 11 12 -6 12 -8 0 -12 -4 -9 -9z"/>
<path d="M1815 1031 c-3 -5 -2 -12 3 -15 5 -3 9 1 9 9 0 17 -3 19 -12 6z"/>
<path d="M1845 1020 c-3 -6 1 -7 9 -4 18 7 21 14 7 14 -6 0 -13 -4 -16 -10z"/>
<path d="M1714 1000 c0 -13 4 -16 10 -10 7 7 7 13 0 20 -6 6 -10 3 -10 -10z"/>
<path d="M1364 994 c-18 -14 -18 -15 4 -4 12 6 22 13 22 15 0 8 -5 6 -26 -11z"/>
<path d="M1440 1000 c-9 -6 -10 -10 -3 -10 6 0 15 5 18 10 8 12 4 12 -15 0z"/>
<path d="M1468 968 c2 -10 6 -18 7 -18 1 0 5 8 7 18 3 11 0 19 -7 19 -7 0 -10
-8 -7 -19z"/>
<path d="M1336 953 c-6 -14 -5 -15 5 -6 7 7 10 15 7 18 -3 3 -9 -2 -12 -12z"/>
<path d="M1390 958 c0 -4 4 -8 9 -8 6 0 12 4 15 8 3 5 -1 9 -9 9 -8 0 -15 -4
-15 -9z"/>
<path d="M1480 940 c-9 -6 -10 -10 -3 -10 6 0 15 5 18 10 8 12 4 12 -15 0z"/>
<path d="M1365 930 c-16 -7 -17 -9 -3 -9 9 -1 20 4 23 9 7 11 7 11 -20 0z"/>
<path d="M1167 919 c7 -7 15 -10 18 -7 3 3 -2 9 -12 12 -14 6 -15 5 -6 -5z"/>
<path d="M1230 919 c0 -5 5 -7 10 -4 6 3 10 8 10 11 0 2 -4 4 -10 4 -5 0 -10
-5 -10 -11z"/>
<path d="M1416 922 c-3 -5 1 -9 9 -9 8 0 12 4 9 9 -3 4 -7 8 -9 8 -2 0 -6 -4
-9 -8z"/>
<path d="M3756 922 c-3 -5 1 -9 9 -9 8 0 12 4 9 9 -3 4 -7 8 -9 8 -2 0 -6 -4
-9 -8z"/>
<path d="M3886 922 c-3 -5 1 -9 9 -9 8 0 12 4 9 9 -3 4 -7 8 -9 8 -2 0 -6 -4
-9 -8z"/>
<path d="M1136 898 c3 -5 10 -6 15 -3 13 9 11 12 -6 12 -8 0 -12 -4 -9 -9z"/>
<path d="M1310 898 c0 -4 4 -8 9 -8 6 0 12 4 15 8 3 5 -1 9 -9 9 -8 0 -15 -4
-15 -9z"/>
<path d="M1251 887 c-8 -10 -7 -14 2 -14 8 0 14 6 14 14 0 7 -1 13 -2 13 -2 0
-8 -6 -14 -13z"/>
<path d="M1136 853 c-6 -14 -5 -15 5 -6 7 7 10 15 7 18 -3 3 -9 -2 -12 -12z"/>
<path d="M3856 861 c-3 -5 2 -15 12 -22 15 -12 16 -12 5 2 -7 9 -10 19 -6 22
3 4 4 7 0 7 -3 0 -8 -4 -11 -9z"/>
<path d="M3793 845 c0 -8 4 -12 9 -9 5 3 6 10 3 15 -9 13 -12 11 -12 -6z"/>
</g>
</svg>
